<?xml version="1.0" encoding="utf-8"?>
<!-- Generator: Adobe Illustrator 16.0.0, SVG Export Plug-In . SVG Version: 6.00 Build 0)  -->
<!DOCTYPE svg PUBLIC "-//W3C//DTD SVG 1.1//EN" "http://www.w3.org/Graphics/SVG/1.1/DTD/svg11.dtd">
<svg version="1.1" id="Layer_1" xmlns="http://www.w3.org/2000/svg" xmlns:xlink="http://www.w3.org/1999/xlink" x="0px" y="0px"
	 width="352.107px" height="273.333px" viewBox="0 0 352.107 273.333" enable-background="new 0 0 352.107 273.333"
	 xml:space="preserve">
<g>
	<g opacity="0.2">
		<polygon fill="#E6CC9C" points="328.69,81.827 214.081,81.827 214.081,242.544 328.403,242.544 328.69,81.827 		"/>
		<polygon fill="#9F503D" points="268.406,231.249 267.272,221.358 257.379,220.224 274.243,203.362 285.269,214.388 
			268.406,231.249 		"/>
		<polygon fill="#9F503D" points="306.604,231.249 307.738,221.358 317.629,220.224 300.767,203.362 289.739,214.388 
			306.604,231.249 		"/>
		<g>
			<defs>
				<rect id="SVGID_7_" x="210.746" y="78.491" width="121.276" height="167.389"/>
			</defs>
			<clipPath id="SVGID_2_">
				<use xlink:href="#SVGID_7_"  overflow="visible"/>
			</clipPath>
			<path clip-path="url(#SVGID_2_)" fill="#D48B62" d="M287.564,187.196c7.659,0,13.871,6.211,13.871,13.873
				c0,7.66-6.212,13.873-13.871,13.873c-7.663,0-13.873-6.213-13.873-13.873C273.691,193.407,279.901,187.196,287.564,187.196
				L287.564,187.196z"/>
			<path clip-path="url(#SVGID_2_)" fill="#311C1B" d="M325.074,239.212H217.415V85.161h107.934L325.074,239.212L325.074,239.212z
				 M331.048,79.47c-0.623-0.625-1.473-0.979-2.36-0.979H214.081c-1.841,0-3.335,1.494-3.335,3.336v160.717
				c0,1.844,1.494,3.336,3.335,3.336h114.322c1.841,0,3.33-1.488,3.335-3.328l0.284-160.721
				C332.024,80.948,331.674,80.097,331.048,79.47L331.048,79.47z"/>
		</g>
		<path fill="#311C1B" d="M310.426,217.692l-3.068,0.354c-1.538,0.178-2.755,1.393-2.931,2.932l-0.344,2.992l-7.932-8.002
			c2.614-1.514,4.796-3.693,6.312-6.309L310.426,217.692L310.426,217.692z M270.932,223.999l-0.348-3.021
			c-0.177-1.539-1.392-2.754-2.934-2.932l-3.041-0.35l8.041-8.061c1.511,2.619,3.689,4.805,6.302,6.32L270.932,223.999
			L270.932,223.999z M287.563,190.528c5.812,0,10.537,4.729,10.537,10.539c0,5.813-4.726,10.537-10.537,10.537
			s-10.539-4.725-10.539-10.537C277.023,195.257,281.751,190.528,287.563,190.528L287.563,190.528z M304.771,201.067
			c0-9.488-7.721-17.207-17.208-17.207c-9.49,0-17.208,7.719-17.208,17.207c0,0.461,0.025,0.916,0.06,1.369l-15.394,15.432
			c-0.904,0.904-1.21,2.25-0.788,3.455c0.424,1.209,1.497,2.066,2.769,2.213l7.26,0.834l0.832,7.26
			c0.146,1.271,1.008,2.348,2.216,2.77c0.36,0.123,0.731,0.184,1.096,0.184c0.873,0,1.726-0.34,2.362-0.979l15.356-15.393
			c0.475,0.037,0.953,0.064,1.439,0.064c0.481,0,0.953-0.027,1.423-0.064l15.251,15.387c0.637,0.641,1.494,0.984,2.367,0.984
			c0.366,0,0.735-0.059,1.091-0.182c1.212-0.422,2.076-1.498,2.223-2.771l0.832-7.26l7.26-0.834c1.27-0.146,2.342-1.004,2.767-2.207
			c0.424-1.207,0.121-2.545-0.777-3.455l-15.29-15.424C304.745,201.995,304.771,201.532,304.771,201.067L304.771,201.067z"/>
		<path fill="#311C1B" d="M230.704,200.196h25.676c1.84,0,3.334-1.49,3.334-3.332c0-1.84-1.494-3.336-3.334-3.336h-25.676
			c-1.842,0-3.334,1.496-3.334,3.336C227.37,198.706,228.862,200.196,230.704,200.196L230.704,200.196z"/>
		<path fill="#311C1B" d="M257.881,105.167h27.01c1.84,0,3.332-1.492,3.332-3.334s-1.492-3.336-3.332-3.336h-27.01
			c-1.843,0-3.337,1.494-3.337,3.336S256.038,105.167,257.881,105.167L257.881,105.167z"/>
		<path fill="#311C1B" d="M232.205,119.171h78.358c1.84,0,3.334-1.49,3.334-3.334c0-1.842-1.494-3.334-3.334-3.334h-78.358
			c-1.84,0-3.334,1.492-3.334,3.334C228.871,117.681,230.365,119.171,232.205,119.171L232.205,119.171z"/>
		<path fill="#311C1B" d="M260.713,142.179h35.18c1.84,0,3.334-1.492,3.334-3.334c0-1.84-1.494-3.334-3.334-3.334h-35.18
			c-1.84,0-3.334,1.494-3.334,3.334C257.379,140.687,258.873,142.179,260.713,142.179L260.713,142.179z"/>
		<path fill="#311C1B" d="M248.71,135.511h-1.833c-1.841,0-3.335,1.494-3.335,3.334c0,1.842,1.494,3.334,3.335,3.334h1.833
			c1.84,0,3.337-1.492,3.337-3.334C252.047,137.005,250.55,135.511,248.71,135.511L248.71,135.511z"/>
		<path fill="#311C1B" d="M260.713,155.185h35.18c1.84,0,3.334-1.494,3.334-3.334c0-1.844-1.494-3.336-3.334-3.336h-35.18
			c-1.84,0-3.334,1.492-3.334,3.336C257.379,153.69,258.873,155.185,260.713,155.185L260.713,155.185z"/>
		<path fill="#311C1B" d="M248.71,148.515h-1.833c-1.841,0-3.335,1.492-3.335,3.336c0,1.84,1.494,3.334,3.335,3.334h1.833
			c1.84,0,3.337-1.494,3.337-3.334C252.047,150.007,250.55,148.515,248.71,148.515L248.71,148.515z"/>
		<path fill="#311C1B" d="M260.713,168.521h35.18c1.84,0,3.334-1.492,3.334-3.332c0-1.844-1.494-3.336-3.334-3.336h-35.18
			c-1.84,0-3.334,1.492-3.334,3.336C257.379,167.028,258.873,168.521,260.713,168.521L260.713,168.521z"/>
		<path fill="#311C1B" d="M248.71,161.853h-1.833c-1.841,0-3.335,1.492-3.335,3.336c0,1.84,1.494,3.332,3.335,3.332h1.833
			c1.84,0,3.337-1.492,3.337-3.332C252.047,163.345,250.55,161.853,248.71,161.853L248.71,161.853z"/>
	</g>
	<g opacity="0.2">
		<polygon fill="#E6CC9C" points="138.028,81.827 23.419,81.827 23.419,242.544 137.742,242.544 138.028,81.827 		"/>
		<polygon fill="#9F503D" points="77.744,231.249 76.61,221.358 66.717,220.224 83.581,203.362 94.606,214.388 77.744,231.249 		"/>
		<polygon fill="#9F503D" points="115.941,231.249 117.076,221.358 126.967,220.224 110.104,203.362 99.08,214.388 115.941,231.249 
					"/>
		<g>
			<defs>
				<rect id="SVGID_9_" x="20.085" y="78.491" width="121.275" height="167.389"/>
			</defs>
			<clipPath id="SVGID_4_">
				<use xlink:href="#SVGID_9_"  overflow="visible"/>
			</clipPath>
			<path clip-path="url(#SVGID_4_)" fill="#D48B62" d="M96.902,187.196c7.659,0,13.872,6.211,13.872,13.873
				c0,7.66-6.213,13.873-13.872,13.873c-7.663,0-13.873-6.213-13.873-13.873C83.029,193.407,89.239,187.196,96.902,187.196
				L96.902,187.196z"/>
			<path clip-path="url(#SVGID_4_)" fill="#311C1B" d="M134.412,239.212H26.753V85.161h107.935L134.412,239.212L134.412,239.212z
				 M140.387,79.47c-0.624-0.625-1.474-0.979-2.36-0.979H23.419c-1.84,0-3.334,1.494-3.334,3.336v160.717
				c0,1.844,1.494,3.336,3.334,3.336h114.323c1.84,0,3.329-1.488,3.334-3.328l0.284-160.721
				C141.362,80.948,141.012,80.097,140.387,79.47L140.387,79.47z"/>
		</g>
		<path fill="#311C1B" d="M119.764,217.692l-3.068,0.354c-1.537,0.178-2.754,1.393-2.931,2.932l-0.344,2.992l-7.932-8.002
			c2.615-1.514,4.797-3.693,6.312-6.309L119.764,217.692L119.764,217.692z M80.27,223.999l-0.348-3.021
			c-0.177-1.539-1.392-2.754-2.934-2.932l-3.041-0.35l8.041-8.061c1.511,2.619,3.69,4.805,6.303,6.32L80.27,223.999L80.27,223.999z
			 M96.9,190.528c5.812,0,10.537,4.729,10.537,10.539c0,5.813-4.726,10.537-10.537,10.537s-10.539-4.725-10.539-10.537
			C86.361,195.257,91.089,190.528,96.9,190.528L96.9,190.528z M114.108,201.067c0-9.488-7.721-17.207-17.208-17.207
			c-9.489,0-17.208,7.719-17.208,17.207c0,0.461,0.025,0.916,0.06,1.369l-15.393,15.432c-0.905,0.904-1.21,2.25-0.788,3.455
			c0.424,1.209,1.496,2.066,2.768,2.213l7.26,0.834l0.832,7.26c0.146,1.271,1.009,2.348,2.216,2.77
			c0.36,0.123,0.731,0.184,1.096,0.184c0.873,0,1.726-0.34,2.362-0.979l15.356-15.393c0.475,0.037,0.953,0.064,1.439,0.064
			c0.481,0,0.953-0.027,1.423-0.064l15.251,15.387c0.637,0.641,1.494,0.984,2.367,0.984c0.367,0,0.735-0.059,1.091-0.182
			c1.213-0.422,2.076-1.498,2.223-2.771l0.832-7.26l7.26-0.834c1.27-0.146,2.343-1.004,2.767-2.207
			c0.424-1.207,0.121-2.545-0.777-3.455l-15.289-15.424C114.083,201.995,114.108,201.532,114.108,201.067L114.108,201.067z"/>
		<path fill="#311C1B" d="M40.043,200.196h25.675c1.841,0,3.335-1.49,3.335-3.332c0-1.84-1.494-3.336-3.335-3.336H40.043
			c-1.843,0-3.335,1.496-3.335,3.336C36.708,198.706,38.2,200.196,40.043,200.196L40.043,200.196z"/>
		<path fill="#311C1B" d="M67.219,105.167h27.01c1.84,0,3.332-1.492,3.332-3.334s-1.492-3.336-3.332-3.336h-27.01
			c-1.842,0-3.336,1.494-3.336,3.336S65.377,105.167,67.219,105.167L67.219,105.167z"/>
		<path fill="#311C1B" d="M41.544,119.171h78.357c1.841,0,3.335-1.49,3.335-3.334c0-1.842-1.494-3.334-3.335-3.334H41.544
			c-1.841,0-3.335,1.492-3.335,3.334C38.209,117.681,39.703,119.171,41.544,119.171L41.544,119.171z"/>
		<path fill="#311C1B" d="M70.052,142.179h35.179c1.84,0,3.334-1.492,3.334-3.334c0-1.84-1.494-3.334-3.334-3.334H70.052
			c-1.841,0-3.335,1.494-3.335,3.334C66.717,140.687,68.211,142.179,70.052,142.179L70.052,142.179z"/>
		<path fill="#311C1B" d="M58.048,135.511h-1.833c-1.841,0-3.335,1.494-3.335,3.334c0,1.842,1.494,3.334,3.335,3.334h1.833
			c1.84,0,3.337-1.492,3.337-3.334C61.385,137.005,59.888,135.511,58.048,135.511L58.048,135.511z"/>
		<path fill="#311C1B" d="M70.052,155.185h35.179c1.84,0,3.334-1.494,3.334-3.334c0-1.844-1.494-3.336-3.334-3.336H70.052
			c-1.841,0-3.335,1.492-3.335,3.336C66.717,153.69,68.211,155.185,70.052,155.185L70.052,155.185z"/>
		<path fill="#311C1B" d="M58.048,148.515h-1.833c-1.841,0-3.335,1.492-3.335,3.336c0,1.84,1.494,3.334,3.335,3.334h1.833
			c1.84,0,3.337-1.494,3.337-3.334C61.385,150.007,59.888,148.515,58.048,148.515L58.048,148.515z"/>
		<path fill="#311C1B" d="M70.052,168.521h35.179c1.84,0,3.334-1.492,3.334-3.332c0-1.844-1.494-3.336-3.334-3.336H70.052
			c-1.841,0-3.335,1.492-3.335,3.336C66.717,167.028,68.211,168.521,70.052,168.521L70.052,168.521z"/>
		<path fill="#311C1B" d="M58.048,161.853h-1.833c-1.841,0-3.335,1.492-3.335,3.336c0,1.84,1.494,3.332,3.335,3.332h1.833
			c1.84,0,3.337-1.492,3.337-3.332C61.385,163.345,59.888,161.853,58.048,161.853L58.048,161.853z"/>
	</g>
	<g>
		<polygon fill="#E6CC9C" points="255.046,31.806 105.492,31.806 105.492,241.528 254.673,241.528 255.046,31.806 		"/>
		<polygon fill="#9F503D" points="176.381,226.788 174.9,213.882 161.992,212.403 183.999,190.397 198.386,204.784 176.381,226.788 
					"/>
		<polygon fill="#9F503D" points="226.225,226.788 227.705,213.882 240.611,212.403 218.609,190.397 204.22,204.784 
			226.225,226.788 		"/>
		<g>
			<defs>
				<rect id="SVGID_11_" x="101.14" y="27.454" width="158.254" height="218.426"/>
			</defs>
			<clipPath id="SVGID_6_">
				<use xlink:href="#SVGID_11_"  overflow="visible"/>
			</clipPath>
			<path clip-path="url(#SVGID_6_)" fill="#D48B62" d="M201.381,169.302c9.996,0,18.102,8.105,18.102,18.104
				s-8.105,18.104-18.102,18.104c-9.999,0-18.104-8.105-18.104-18.104S191.382,169.302,201.381,169.302L201.381,169.302z"/>
			<path clip-path="url(#SVGID_6_)" fill="#311C1B" d="M250.328,237.177H109.841V36.155h140.845L250.328,237.177L250.328,237.177z
				 M258.124,28.729c-0.816-0.816-1.925-1.275-3.08-1.275H105.492c-2.404,0-4.353,1.947-4.353,4.352v209.723
				c0,2.404,1.948,4.352,4.353,4.352h149.181c2.399,0,4.345-1.941,4.35-4.342l0.371-209.725
				C259.398,30.657,258.939,29.55,258.124,28.729L258.124,28.729z"/>
		</g>
		<path fill="#311C1B" d="M231.213,209.099l-4.003,0.459c-2.01,0.23-3.596,1.818-3.825,3.828l-0.449,3.904l-10.349-10.441
			c3.412-1.977,6.258-4.822,8.233-8.234L231.213,209.099L231.213,209.099z M179.674,217.325l-0.451-3.939
			c-0.231-2.01-1.817-3.598-3.827-3.828l-3.969-0.455l10.491-10.516c1.971,3.416,4.814,6.268,8.225,8.244L179.674,217.325
			L179.674,217.325z M201.376,173.651c7.585,0,13.752,6.17,13.752,13.752s-6.167,13.752-13.752,13.752
			c-7.581,0-13.75-6.17-13.75-13.752S193.795,173.651,201.376,173.651L201.376,173.651z M223.832,187.403
			c0-12.381-10.074-22.453-22.456-22.453c-12.379,0-22.451,10.072-22.451,22.453c0,0.6,0.03,1.195,0.076,1.787l-20.089,20.139
			c-1.178,1.18-1.577,2.932-1.026,4.508c0.552,1.574,1.952,2.695,3.611,2.887l9.474,1.088l1.086,9.475
			c0.19,1.658,1.315,3.061,2.893,3.611c0.47,0.162,0.953,0.242,1.43,0.242c1.139,0,2.253-0.443,3.082-1.279l20.038-20.086
			c0.619,0.051,1.244,0.084,1.877,0.084c0.628,0,1.247-0.033,1.858-0.084l19.9,20.076c0.83,0.84,1.948,1.289,3.09,1.289
			c0.479,0,0.96-0.078,1.423-0.238c1.581-0.549,2.709-1.955,2.901-3.615l1.086-9.475l9.474-1.088
			c1.654-0.191,3.057-1.311,3.609-2.883c0.553-1.57,0.158-3.32-1.016-4.504l-19.95-20.129
			C223.8,188.614,223.832,188.011,223.832,187.403L223.832,187.403z"/>
		<path fill="#311C1B" d="M127.185,186.269h33.501c2.404,0,4.354-1.947,4.354-4.35s-1.95-4.352-4.354-4.352h-33.501
			c-2.404,0-4.352,1.949-4.352,4.352S124.78,186.269,127.185,186.269L127.185,186.269z"/>
		<path fill="#311C1B" d="M162.646,62.261h35.245c2.401,0,4.35-1.945,4.35-4.35c0-2.4-1.948-4.352-4.35-4.352h-35.245
			c-2.404,0-4.353,1.951-4.353,4.352C158.293,60.315,160.241,62.261,162.646,62.261L162.646,62.261z"/>
		<path fill="#311C1B" d="M129.142,80.538h102.25c2.402,0,4.353-1.947,4.353-4.352s-1.95-4.352-4.353-4.352h-102.25
			c-2.401,0-4.352,1.947-4.352,4.352S126.74,80.538,129.142,80.538L129.142,80.538z"/>
		<path fill="#311C1B" d="M166.344,110.56h45.904c2.401,0,4.352-1.947,4.352-4.35c0-2.404-1.95-4.35-4.352-4.35h-45.904
			c-2.401,0-4.352,1.945-4.352,4.35C161.992,108.612,163.942,110.56,166.344,110.56L166.344,110.56z"/>
		<path fill="#311C1B" d="M150.678,101.86h-2.392c-2.402,0-4.353,1.945-4.353,4.35c0,2.402,1.95,4.35,4.353,4.35h2.392
			c2.404,0,4.353-1.947,4.353-4.35C155.03,103.806,153.082,101.86,150.678,101.86L150.678,101.86z"/>
		<path fill="#311C1B" d="M166.344,127.528h45.904c2.401,0,4.352-1.947,4.352-4.35c0-2.404-1.95-4.352-4.352-4.352h-45.904
			c-2.401,0-4.352,1.947-4.352,4.352C161.992,125.581,163.942,127.528,166.344,127.528L166.344,127.528z"/>
		<path fill="#311C1B" d="M150.678,118.827h-2.392c-2.402,0-4.353,1.947-4.353,4.352c0,2.402,1.95,4.35,4.353,4.35h2.392
			c2.404,0,4.353-1.947,4.353-4.35C155.03,120.774,153.082,118.827,150.678,118.827L150.678,118.827z"/>
		<path fill="#311C1B" d="M166.344,144.933h45.904c2.401,0,4.352-1.945,4.352-4.35c0-2.402-1.95-4.35-4.352-4.35h-45.904
			c-2.401,0-4.352,1.947-4.352,4.35C161.992,142.987,163.942,144.933,166.344,144.933L166.344,144.933z"/>
		<path fill="#311C1B" d="M150.678,136.233h-2.392c-2.402,0-4.353,1.947-4.353,4.35c0,2.404,1.95,4.35,4.353,4.35h2.392
			c2.404,0,4.353-1.945,4.353-4.35C155.03,138.181,153.082,136.233,150.678,136.233L150.678,136.233z"/>
	</g>
</g>
</svg>
