<?xml version="1.0" encoding="utf-8"?>
<!-- Generator: Adobe Illustrator 16.0.0, SVG Export Plug-In . SVG Version: 6.00 Build 0)  -->
<!DOCTYPE svg PUBLIC "-//W3C//DTD SVG 1.1//EN" "http://www.w3.org/Graphics/SVG/1.1/DTD/svg11.dtd">
<svg version="1.1" id="Layer_1" xmlns="http://www.w3.org/2000/svg" xmlns:xlink="http://www.w3.org/1999/xlink" x="0px" y="0px"
	 width="144px" height="144px" viewBox="0 0 144 144" enable-background="new 0 0 144 144" xml:space="preserve">
<g>
	<path fill-rule="evenodd" clip-rule="evenodd" fill="#6A2D33" d="M72.449,44.099c0-0.001,0-0.003,0-0.007
		c-0.364-1.347-10.745,1.743-10.64-1.046c0.092-2.284,8.944-1.983,10.451-2.111c4.652-0.378,9.304-0.723,13.952-1.116
		c1.575-0.135,4.395-0.392,4.908,1.681c0.403,1.624-1.098,2.045-2.355,2.276c-3.594,0.664-7.088,0.35-10.698,0.212
		c-0.149-0.004-2.937-0.123-2.948,0.11c-0.046,1.177-0.411,2.429-0.023,3.584c0.238,0.707,0.861,1.251,1.112,1.976
		c0.272,0.797,0.332,1.73,0.099,2.545c-1.054,3.682-4.697,2.341-7.581,2.726c-3.151,0.424-5.399,2.217-4.287,5.623
		c0,0,3.607,6.351,17.177,3.032c-1.615,0.394-3.239,1.639-4.917,2.109c-3.558,0.997-7.579,0.762-10.807-1.142
		c-3.381-1.998-5.986-5.247-5.052-9.259c1.041-4.486,3.964-6.088,8.218-7.154c1.489-0.37,2.437-0.197,2.991-1.416
		C72.393,45.966,72.506,44.888,72.449,44.099z"/>
	<g>
		<path fill-rule="evenodd" clip-rule="evenodd" fill="#6A2D33" d="M39.761,107.405c0,1.839,0.073,3.582-0.034,5.315
			c-0.044,0.777-0.371,1.571-0.712,2.291c-0.412,0.861-1.311,0.79-1.951,0.472c-0.471-0.231-0.955-0.908-1.004-1.427
			c-0.261-2.752-0.239-5.535-0.594-8.274c-0.398-3.055-1.115-6.065-1.652-9.104c-0.133-0.762-0.441-0.939-1.19-0.809
			c-3.463,0.604-6.938,1.121-10.398,1.73c-5.547,0.973-11.076,1.996-16.617,2.996c-0.688,0.125-1.388,0.202-2.066,0.363
			c-0.998,0.24-1.645-0.188-2.07-1.028c-0.453-0.888-0.134-1.714,0.543-2.257c0.542-0.433,1.275-0.74,1.965-0.849
			c4.89-0.775,9.792-1.438,14.674-2.231c4.264-0.691,8.513-1.483,12.755-2.279c1.024-0.193,2.012-0.578,3.022-0.863
			c0.177-0.051,0.372-0.085,0.553-0.066c3.602,0.402,7.095-0.571,10.642-0.851c1.253-0.102,2.507-0.37,3.749-0.305
			c0.528,0.025,1.138,0.627,1.486,1.127c0.125,0.178-0.359,0.852-0.646,1.243c-1.033,1.408-2.693,0.977-4.077,1.261
			c-2.456,0.503-4.954,0.794-7.53,1.188c0.224,2.892,0.44,5.714,0.669,8.699c0.486-0.26,0.858-0.407,1.168-0.635
			c2.309-1.711,4.593-1.625,6.519,0.41c0.714,0.754,0.958,0.501,1.319-0.211c0.462-0.917,0.876-1.926,2.1-2.051
			c1.242-0.127,2.126,0.444,2.564,1.807c0.575,1.789,1.026,3.613,1.534,5.423c0.09,0.321,0.137,0.673,0.313,0.947
			c0.322,0.511,0.876,0.759,1.269,0.21c0.72-1.003,1.296-2.105,1.926-3.172c0.053-0.092,0.058-0.212,0.076-0.324
			c0.169-0.963,0.316-2.002,1.511-2.182c1.176-0.182,1.655,0.79,2.178,1.598c0.523,0.808,0.853,2.089,1.564,2.355
			c1.354,0.496,2.918,0.427,4.398,0.574c0.213,0.021,0.439-0.058,0.662-0.088c0.879-0.114,1.194-0.496,1.113-1.48
			c-0.15-1.942-0.017-3.867,1.691-5.267c1.188-0.971,3.431-1.189,4.684-0.392c1.082,0.685,1.53,2.655,0.894,4.332
			c-0.311,0.814-0.746,1.595-1.206,2.341c-0.363,0.593-0.198,0.738,0.394,1.012c2.204,1.018,4.473,1.211,6.833,0.81
			c0.32-0.055,0.66,0.012,0.992,0.025c-0.073,0.522,0.021,1.167-0.248,1.542c-1.094,1.504-2.731,2.031-4.506,2.24
			c-2.504,0.301-4.714-0.403-6.778-1.813c-0.438-0.3-1.233-0.422-1.717-0.242c-1.803,0.677-3.632,1.121-5.558,1.162
			c-1.738,0.039-3.311-0.566-4.606-1.63c-0.886-0.726-1.003-0.065-1.365,0.401c-1.005,1.292-2.152,2.408-3.886,2.556
			c-1.235,0.104-2.31-0.385-2.873-1.498c-0.947-1.872-1.753-3.815-2.639-5.72c-0.138-0.293-0.386-0.536-0.583-0.8
			c-0.05,0.316-0.176,0.64-0.138,0.948c0.24,1.894,0.791,3.783-0.339,5.616c-0.541,0.875-1.444,1.395-2.162,1.076
			c-1.276-0.573-1.885-1.649-1.324-2.716c0.879-1.667,0.134-3.03-0.902-4.086c-0.439-0.445-1.666-0.165-2.531-0.112
			c-0.28,0.018-0.521,0.407-0.824,0.534C40.53,107.362,40.216,107.343,39.761,107.405z"/>
		<path fill-rule="evenodd" clip-rule="evenodd" fill="#6A2D33" d="M88.098,96.54c3.344-0.299,6.543-0.583,9.74-0.875
			c0.885-0.08,1.819-0.034,2.639-0.314c1.557-0.528,2.28,0.605,2.836,1.513c0.377,0.613,0.26,1.717,0.006,2.484
			c-0.35,1.048-1.378,1.357-2.445,1.362c-1.872,0.007-3.759-0.138-5.616,0.043c-2.597,0.257-5.172,0.755-7.852,1.162
			c0.107,2.985,0.486,5.791,1.438,8.503c0.205,0.59,0.644,0.697,0.965,0.176c0.334-0.541,0.697-1.21,0.663-1.8
			c-0.091-1.78,0.224-3.447,0.99-5.028c0.418-0.854,1.127-1.214,2.101-1.034c0.248,0.048,0.689,0.031,0.771-0.112
			c0.873-1.535,2.299-0.989,3.554-0.962c1.216,0.022,2.434,0.183,3.647,0.269c1.912,0.131,3.599,0.792,5.137,2.327
			c0.535-0.545,1.131-1.011,1.54-1.603c1.243-1.796,3.42-1.266,4.002,0.27c0.633,1.671,1.146,3.394,1.583,5.126
			c0.315,1.248,0.419,2.548,0.594,3.828c0.072,0.515,0.249,1.11,0.071,1.537c-0.293,0.702-0.701,1.563-1.31,1.871
			c-0.861,0.436-1.697-0.321-2.017-1.058c-0.521-1.202-0.782-2.517-1.112-3.795c-0.288-1.117-0.523-2.25-0.78-3.376
			c-0.142-0.013-0.276-0.026-0.419-0.039c-0.196,0.469-0.424,0.927-0.585,1.41c-0.267,0.8-0.31,1.744-0.779,2.38
			c-0.348,0.475-1.218,0.775-1.858,0.778c-0.845,0.003-1.497-0.59-1.62-1.516c-0.059-0.473-0.029-0.97,0.025-1.45
			c0.16-1.356-0.461-2.233-2.033-2.65c0.048,0.759,0.133,1.475,0.125,2.187c-0.023,2.473-1.755,3.639-3.687,4.51
			c-1.754,0.787-3.597,1.081-5.494,0.285c-0.296-0.124-0.876,0.149-1.18,0.406c-0.563,0.471-0.98,1.115-1.532,1.607
			c-1.145,1.022-2.543,0.987-3.434-0.296c-0.783-1.129-1.396-2.431-1.824-3.74c-1.492-4.609-1.867-9.369-1.527-14.18
			c0.116-1.664,0.448-3.333,0.892-4.945c0.18-0.656,0.796-1.37,1.406-1.695c1.24-0.668,2.732,0.555,2.797,2.269
			c0.032,0.951-0.182,1.909-0.282,2.866C88.189,95.663,88.146,96.085,88.098,96.54z M94.922,104.71
			c-0.236,1.183-0.435,2.042-0.574,2.909c-0.16,1.013,0.359,1.647,1.327,1.6c0.941-0.046,1.915-0.264,2.783-0.63
			c0.875-0.364,1.017-1.308,0.32-1.746C97.58,106.079,96.293,105.457,94.922,104.71z"/>
		<path fill-rule="evenodd" clip-rule="evenodd" fill="#6A2D33" d="M123.65,110.021c1.422,0.285,2.836,0.61,4.271,0.841
			c2.155,0.344,4.319,0.654,6.486,0.917c1.686,0.2,3.384,0.343,5.081,0.431c1.217,0.064,2.325,0.211,2.826,1.659
			c-0.765,0.951-1.957,1.377-3.068,1.433c-2.995,0.154-6.019,0.233-8.999,0.012c-2.94-0.221-5.865-0.768-8.768-1.33
			c-1.708-0.331-3.257-1.145-4.472-2.481c-0.182-0.199-0.462-0.321-0.72-0.425c-0.8-0.326-1.395-0.8-1.373-1.753
			c0.02-0.912-0.139-1.867,0.972-2.384c0.303-0.138,0.477-0.62,0.648-0.974c1.077-2.265,2.772-3.771,5.324-3.981
			c1.001-0.086,2.046,0.23,3.061,0.419c0.978,0.18,1.932,0.467,2.914,0.633c1.022,0.174,1.495,0.804,1.714,1.752
			c0.284,1.216-0.167,2.115-1.207,2.675c-1.509,0.814-3.063,1.546-4.598,2.312C123.714,109.859,123.683,109.941,123.65,110.021z"/>
	</g>
	<g>
		<path fill="#555E7D" d="M81.541,29.241c2.987,0.779,5.864,2.128,8.344,3.921c2.486,1.781,4.666,3.883,6.416,6.149
			c-0.746-0.866-1.426-1.792-2.27-2.563l-1.224-1.192c-0.419-0.383-0.875-0.727-1.313-1.088c0.665,0.532,1.298,1.054,1.839,1.652
			c0.544,0.591,1.117,1.136,1.577,1.78c0.471,0.636,0.93,1.281,1.376,1.954c0.398,0.707,0.79,1.438,1.181,2.203
			c-0.464-0.323-0.922-0.983-1.368-1.58c-0.438-0.602-0.952-1.069-1.33-1.104c-2.503-3.125-5.539-5.841-9.016-7.927
			c-3.465-2.096-7.4-3.508-11.472-4.043c0.831-0.319,1.589-0.309,2.279-0.255c0.69,0.068,1.308,0.252,1.865,0.542
			C79.554,28.232,80.475,28.881,81.541,29.241z"/>
		<path fill="#555E7D" d="M100.25,50.592c-0.23-0.771-0.454-1.521-0.676-2.263C99.861,49.1,100.129,49.874,100.25,50.592z"/>
		<path fill="#555E7D" d="M48.853,56.744c0.031,0.771,0.171,1.534,0.249,2.272C48.905,58.282,48.827,57.513,48.853,56.744z"/>
		<path fill="#555E7D" d="M71.044,31.049c-0.435,0.14-0.867,0.254-1.307,0.354c-3.341,0.242-6.719,1.093-9.902,2.627
			c0.871-0.401,1.709-0.905,2.629-1.254c0.452-0.193,0.907-0.388,1.361-0.583c0.458-0.19,0.939-0.313,1.411-0.467
			c0.475-0.144,0.949-0.291,1.429-0.413c0.487-0.087,0.976-0.165,1.464-0.23c0.489-0.052,0.972-0.142,1.462-0.122
			C70.08,30.973,70.566,31.001,71.044,31.049z"/>
		<path fill="#555E7D" d="M74.605,32.283c3.29,0.195,6.553,1.419,8.971,3.332C81.094,33.822,77.931,32.649,74.605,32.283z"/>
		<path fill="#555E7D" d="M63.143,71.114c0.055-0.098,0.138-0.145,0.229-0.168c0.069,0.013,0.145,0.009,0.219-0.016
			c0.308,0.342,0.695,0.567,1.04,0.873c0.181,0.139,0.352,0.301,0.538,0.431l0.575,0.376c-0.23-0.036-0.515,0.072-0.735-0.011
			c-0.417-0.313-0.594-0.631-0.821-0.872C63.959,71.484,63.69,71.304,63.143,71.114z"/>
		<path fill="#555E7D" d="M48.833,55.885l-0.058-0.083c-0.022-0.266-0.056-0.531-0.04-0.792c0.017-0.03,0.03-0.057,0.047-0.09
			C48.787,55.241,48.818,55.563,48.833,55.885z"/>
		<path fill="#555E7D" d="M62.232,70.4c0.115-0.178,0.231-0.359,0.278-0.541c0.327,0.384,0.719,0.692,1.072,1.062
			c-0.074,0.003-0.146,0.008-0.211,0.024C63.016,70.867,62.693,70.418,62.232,70.4z"/>
		<path fill="#555E7D" d="M57.746,60.426c-0.057-0.287-0.526-0.465-0.658-0.59c0.092-0.828,0.366-1.623,0.464-2.509
			c-0.103-0.135-0.103-0.424-0.317-0.708c0.176-0.161,0.324-0.331,0.456-0.506c-0.176,1.915-0.012,3.943,0.531,5.975
			C58.032,61.563,57.865,61.008,57.746,60.426z"/>
		<path fill="#555E7D" d="M93.446,52.735c0.119,0.445,0.22,0.906,0.308,1.375c0.087,0.47,0.072,0.958,0.1,1.442
			c0.081,0.972-0.091,1.958-0.142,2.932c-0.066,0.484-0.159,0.964-0.219,1.444l-0.083,0.718c-0.049,0.235-0.092,0.47-0.13,0.705
			c-0.079,0.47-0.115,0.945-0.159,1.417c-0.071,0.464-0.112,0.934-0.116,1.415c1.103-1.882,1.777-4.429,2.191-6.593
			c0.263-1.086,0.372-2.077,0.614-2.869c0.265-0.794,0.478-1.373,0.921-1.626c0.429-0.254,0.728,0.027,0.947,0.672
			c0.165,0.649,0.226,1.659,0.186,2.802c-0.123,2.314-0.936,5.046-1.376,6.893c0.303-0.45,0.303-0.45,0.605-0.898
			c-0.317,0.455-0.576,0.904-0.522,1.39c0.649-0.863,1.468-2.768,2.098-3.292c0,0,0.079,0.255,0.158,0.51
			c0.082,0.258,0.147,0.517,0.147,0.517c0.451-0.627,0.827-1.452,1.188-2.382c0.318-0.933,0.529-1.979,0.763-3.044
			c0.128-1.062,0.291-2.155,0.399-3.179c0.074-1.02,0.185-1.987,0.38-2.829c-0.254,3.933-0.782,7.932-2,11.844
			c-1.202,3.906-3.033,7.723-5.597,11.143c-2.586,3.393-5.959,6.32-9.845,8.368c-3.888,2.037-8.273,3.071-12.55,3.041
			c-4.793,0.211-9.523-0.685-13.95-2.415c-0.568-0.194-1.102-0.451-1.638-0.707c-0.541-0.257-1.081-0.513-1.618-0.769
			c-0.519-0.299-1.035-0.598-1.551-0.895c-0.517-0.304-1.046-0.597-1.524-0.954c-0.977-0.69-1.992-1.366-2.885-2.173
			c-0.463-0.396-0.923-0.793-1.383-1.187c-0.428-0.434-0.852-0.866-1.275-1.297c-0.285-0.354-0.691-0.823-1.032-1.45
			c-0.352-0.619-0.732-1.339-1.109-2.104c-0.671-1.565-1.325-3.323-1.631-4.84c-0.963-2.573-1.455-5.299-1.799-8.069l-0.128-2.093
			l-0.058-1.053l0.02-1.053l0.046-2.122l0.199-2.119l0.187-1.119l0.281-1.095c0.2-0.727,0.391-1.46,0.636-2.171
			c0.548-1.401,1.086-2.816,1.847-4.119c0.686-1.345,1.561-2.578,2.444-3.802c0.44-0.612,0.961-1.166,1.449-1.742
			c0.494-0.574,0.998-1.139,1.564-1.649c0.551-0.523,1.108-1.042,1.672-1.553c0.602-0.467,1.206-0.936,1.813-1.405
			c0.599-0.48,1.247-0.891,1.902-1.298c0.659-0.399,1.295-0.844,1.988-1.192c2.726-1.494,5.681-2.603,8.771-3.446
			c1.25-0.292,2.824-0.101,3.278,0.343c0.466,0.464-0.158,1.1-2.961,1.964c-4.558,1.777-8.765,4.243-12.396,7.395
			c0.065-0.783,2.042-2.024,2.747-2.917c-3.189,1.745-5.574,3.771-7.73,6.647c0.755-0.93,1.468-1.902,2.302-2.768
			c0.844-0.856,1.658-1.747,2.608-2.497c-2.28,1.963-4.478,4.293-6.187,7.04c-1.73,2.722-3.057,5.786-3.775,8.974
			c-0.124,0.584-0.354,1.121-0.624,1.666c-0.265,0.546-0.596,1.094-0.801,1.707c-0.225,0.608-0.411,1.267-0.48,1.994
			c-0.076,0.725,0.077,1.529,0.379,2.39c0.356-4.316,1.655-8.534,3.664-12.306c2.015-3.775,4.7-7.145,7.897-9.929
			c-0.003,0.021-0.008,0.041-0.005,0.06c2.791-2.557,5.859-4.252,9.254-5.547c-1.026,0.497-2.059,0.99-2.972,1.395l0.922-0.369
			c0.313-0.109,0.631-0.201,0.944-0.302c0.626-0.197,1.25-0.394,1.873-0.59c0.631-0.162,1.267-0.296,1.896-0.444
			c0.628-0.147,1.253-0.3,1.895-0.372l1.904-0.271c0.634-0.088,1.28-0.087,1.917-0.132c1.276-0.111,2.558-0.016,3.832,0.039
			c-3.626,0.27-7.196,1.022-10.584,2.326c-3.391,1.292-6.611,3.146-9.389,5.539c-2.778,2.385-5.108,5.304-6.747,8.543
			c-1.644,3.232-2.583,6.787-2.696,10.269c0.177-0.475,0.321-0.967,0.442-1.473c0.06-0.253,0.113-0.51,0.165-0.769
			c0.066-0.256,0.135-0.516,0.203-0.776c0.128-0.522,0.243-1.055,0.353-1.593c0.118-0.534,0.294-1.056,0.439-1.583
			c0.576-2.106,1.537-4.07,2.877-5.2c-3.204,5.29-4.601,11.706-3.863,18.11c-0.153-0.459-0.313-0.909-0.44-1.371
			c-0.062,0.515-0.03,1.025,0.011,1.539c0.041,0.515,0.102,1.032,0.174,1.551c0.173,1.028,0.508,2.034,0.81,3.041
			c0.396,0.977,0.8,1.953,1.253,2.892c0.246,0.461,0.49,0.92,0.732,1.376c0.239,0.458,0.465,0.92,0.742,1.349
			c0.183,0.317,0.365,0.629,0.548,0.948c-0.181-0.314-0.365-0.631-0.548-0.948c-1.8-3.296-2.87-6.846-3.281-10.376
			c0.47,1.576,0.877,3.23,1.473,5.21c-0.043-0.58-0.082-1.275-0.175-2.009c-0.092-0.734-0.243-1.506-0.271-2.3L46.312,60.7
			c-0.091-0.506-0.085-1.024-0.128-1.534c-0.026-0.512-0.068-1.022-0.075-1.533l0.069-1.527c-0.055,3.142,0.657,6.235,1.98,8.703
			c-0.853-4.033-1.132-8.303-0.172-12.268c-0.275,2.205-0.396,4.436-0.073,6.621c0.132,3.688,1.082,7.439,2.946,10.807
			c-0.094-0.113-0.165-0.243-0.247-0.364c0.133,0.261,0.309,0.497,0.475,0.736c0.403,0.632,0.763,1.301,1.22,1.904
			c0.464,0.596,0.913,1.211,1.408,1.79c0.488,0.479,1.011,0.916,1.549,1.319c0.549,0.391,1.163,0.692,1.748,1.001l0.514,0.416
			c-0.427-0.128-0.718-0.102-0.126,0.475c0.646,0.593,1.337,1.19,2.134,1.642c0.81,0.43,1.613,0.914,2.513,1.227
			c0.44,0.177,0.884,0.355,1.331,0.535c0.445,0.18,0.916,0.304,1.374,0.477c0.464,0.154,0.915,0.366,1.39,0.517
			c0.475,0.155,0.949,0.33,1.429,0.53c0.499,0.232,1.123,0.333,1.813,0.392c0.688,0.063,1.439,0.111,2.22,0.023
			c0.417,0.147,0.645,0.067,0.842-0.065c0.333-0.035,0.671-0.038,1.004-0.096c0.814-0.084,1.639-0.148,2.416-0.359
			c-0.785,0.096-1.599,0.217-2.416,0.359c-0.307,0.034-0.612,0.016-0.916,0.036c0.209-0.157,0.427-0.319,0.872-0.347
			c-5.599,0.029-11.258-1.927-15.878-5.346c0.372,0.079,0.858,0.232,1.078,0.265c-0.54-0.198-1.09-0.399-1.592-0.68
			c-0.724-0.583-1.466-1.149-2.119-1.816l-1.017-0.965l-0.938-1.045c0.436,0.368,0.87,0.678,1.323,0.872
			c-3.381-3.987-5.744-8.925-6.348-14.238c0-0.627-0.068-1.248-0.008-1.869l0.142-1.854c0.07-0.613,0.203-1.219,0.302-1.823
			c0.086-0.608,0.255-1.199,0.424-1.786c0.279-1.189,0.762-2.312,1.188-3.439c0.539-1.084,1.03-2.181,1.696-3.182
			c-1.736,1.977-3.032,4.542-3.671,7.333c0.581-3.753,2.062-7.399,4.328-10.488c2.243-3.106,5.372-5.549,8.83-7.046
			c-0.226,0.304-0.478,0.608-0.732,0.911c-0.253,0.304-0.479,0.657-0.699,0.976c-0.426,0.662-0.797,1.245-0.826,1.856
			c0.264,0.246,2.188-0.776,1.261,0.104c-1.519,1.782-2.866,3.091-3.722,4.432c-0.217,0.329-0.415,0.644-0.58,0.955
			c-0.137,0.332-0.244,0.655-0.313,0.976c-0.137,0.638-0.123,1.258,0.205,1.93c0.1,0.149,0.435,0.082,0.862-0.06
			c0.438-0.125,1.007-0.289,1.545-0.443c0.506-0.151,1.017-0.22,1.365-0.175c0.344,0.04,0.521,0.185,0.415,0.487
			c-0.45,0.937-1.354,2.509-1.875,4.349c-0.263,0.484-0.43,1.03-0.651,1.58c-0.057,0.061,0.048,0.217,0.161,0.403
			c-0.392,1.996-0.431,3.909-0.424,4.987c-0.028,0.402-0.065,0.806-0.015,1.206c-0.087,0.227-0.221,0.435-0.405,0.618
			c0.213,0.223,0.341,0.458,0.506,0.681c0.113,0.528,0.183,1.075,0.313,1.601c0.175,0.506,0.308,1.035,0.499,1.538l0.143,0.938
			c0.045,0.318,0.083,0.649,0.197,0.939c0.118-0.09,0.234-0.273,0.425-0.255c0.344,0.58,0.663,1.182,1.1,1.701
			c0.213,0.263,0.379,0.565,0.623,0.802l0.691,0.745c0.114,0.278,0.241,0.533,0.349,0.801c0.105,0.271,0.186,0.56,0.241,0.867
			c0.484,0.02,1.033,0.118,1.562,0.356c0.51,0.268,1.112,0.506,1.685,0.856c0.279,0.191,0.607,0.296,0.911,0.459
			c0.313,0.141,0.607,0.335,0.93,0.446c0.646,0.209,1.254,0.509,1.859,0.546l0.009-0.048l0.872,0.214
			c0.29,0.083,0.595,0.084,0.892,0.138l0.899,0.135l0.913,0.035c0.199,0.132,0.395,0.289,0.583,0.469
			c0.306-0.216,0.624-0.283,0.769-0.398c0.996,0.147,1.866,0.223,2.793,0.361c0.135-0.132,0.311-0.651,0.619-0.75
			c0.322-0.069,0.636-0.149,0.942-0.232c0.301-0.105,0.58-0.251,0.862-0.376c0.338-0.126,0.711-0.188,1.036-0.354
			c0.335-0.149,0.676-0.294,1.023-0.435c2.311-1.006,4.425-2.507,6.231-4.396c0.182,0.029,0.366,0.133,0.55,0.237
			c-0.002-0.503,0.552-0.829,0.582-1.246c0.026,0.098,0.077,0.181,0.178,0.23c0.276-1.252,0.885-1.166,1.471-2.144
			c0.096-0.236-0.003-0.531,0.039-0.777c0.075-0.1,0.119-0.214,0.179-0.323c0.614-0.441,1.031-1.003,1.206-1.645
			c0.092-0.32,0.158-0.652,0.224-0.99c0.034-0.169,0.067-0.34,0.102-0.513c0.015-0.175,0.033-0.353,0.059-0.531
			c0.204-0.699,0.443-1.408,0.545-2.14l0.213-1.106l0.094-1.124C92.757,54.213,93.189,53.676,93.446,52.735z"/>
		<path fill="#555E7D" d="M66.024,72.797c1.012,0.671,2.116,1.208,3.276,1.675C68.036,74.185,66.735,74.133,66.024,72.797z"/>
		<path fill="#555E7D" d="M60.912,46.712c0.546-0.092,1.122-0.183,1.593-0.402l-0.725,0.663c-0.209,0.251-0.423,0.5-0.642,0.745
			c-0.106,0.125-0.227,0.239-0.325,0.37l-0.281,0.406c-0.183,0.274-0.397,0.527-0.57,0.809c-0.306,0.584-0.692,1.129-0.925,1.754
			c-0.122,0.308-0.312,0.591-0.395,0.915c-0.102,0.317-0.211,0.632-0.326,0.946l-0.049-0.011c0.066-0.261,0.148-0.533,0.237-0.813
			c0.048-0.139,0.083-0.285,0.146-0.422c0.068-0.135,0.138-0.272,0.208-0.41c0.135-0.276,0.271-0.556,0.407-0.834
			c0.173-0.261,0.338-0.522,0.485-0.785c0.263-0.549,0.638-0.993,0.815-1.501C60.768,47.646,60.947,47.211,60.912,46.712z"/>
		<path fill="#555E7D" d="M63.372,70.946c0.065-0.016,0.137-0.021,0.211-0.024c0.001,0.004,0.003,0.006,0.008,0.008
			C63.517,70.955,63.441,70.958,63.372,70.946z"/>
		<path fill="#555E7D" d="M61.086,36.361l0.366-0.176c-0.89,0.52-1.663,1.213-2.489,1.808c0.292-0.291,0.623-0.574,0.978-0.853
			C60.294,36.86,60.666,36.576,61.086,36.361z"/>
		<path fill="#555E7D" d="M71.669,33.885c2.047-0.117,4.143-0.084,6.175,0.364c2.564,0.749,4.913,2.036,6.675,3.757
			c-1.859-1.238-3.886-2.251-6.046-2.989C76.302,34.311,74.007,33.95,71.669,33.885z"/>
		<path fill="#555E7D" d="M65.291,43.851c0.58-0.088,1.139-0.189,1.734-0.161c-0.535,0.122-1,0.394-1.498,0.596
			C65.548,44.112,65.375,43.976,65.291,43.851z"/>
		<path fill="#555E7D" d="M54.845,42.14l0.39-0.48c-0.243,0.49-0.475,0.98-0.697,1.463C54.579,42.918,54.754,42.481,54.845,42.14z"
			/>
		<path fill="#555E7D" d="M71.053,43.066c-0.391-0.038-0.774,0.042-1.166,0.047c0.211-0.122,0.416-0.282,0.623-0.491
			C70.669,42.811,70.852,42.938,71.053,43.066z"/>
		<path fill="#555E7D" d="M76.935,43.61c0.247,0.093,0.495,0.169,0.73,0.27c0.223,0.128,0.44,0.253,0.656,0.376
			c-0.292-0.087-0.57-0.219-0.867-0.296c-0.301-0.067-0.598-0.142-0.889-0.224C76.738,43.637,76.885,43.546,76.935,43.61z"/>
	</g>
	<g>
		<path fill="#6A2D33" d="M81.541,28.349c2.987,0.779,5.864,2.128,8.344,3.921c2.486,1.781,4.666,3.883,6.416,6.149
			c-0.746-0.866-1.426-1.792-2.27-2.563l-1.224-1.192c-0.419-0.384-0.875-0.728-1.313-1.088c0.665,0.532,1.298,1.054,1.839,1.652
			c0.544,0.591,1.117,1.135,1.577,1.78c0.471,0.635,0.93,1.281,1.376,1.953c0.398,0.708,0.79,1.438,1.181,2.204
			c-0.464-0.323-0.922-0.984-1.368-1.581c-0.438-0.601-0.952-1.068-1.33-1.103c-2.503-3.125-5.539-5.841-9.016-7.927
			c-3.465-2.096-7.4-3.507-11.472-4.043c0.831-0.319,1.589-0.309,2.279-0.255c0.69,0.068,1.308,0.252,1.865,0.542
			C79.554,27.339,80.475,27.988,81.541,28.349z"/>
		<path fill="#6A2D33" d="M100.25,49.699c-0.23-0.771-0.454-1.521-0.676-2.262C99.861,48.208,100.129,48.981,100.25,49.699z"/>
		<path fill="#6A2D33" d="M48.853,55.852c0.031,0.771,0.171,1.534,0.249,2.271C48.905,57.389,48.827,56.62,48.853,55.852z"/>
		<path fill="#6A2D33" d="M71.044,30.156c-0.435,0.14-0.867,0.254-1.307,0.354c-3.341,0.243-6.719,1.094-9.902,2.627
			c0.871-0.401,1.709-0.905,2.629-1.254c0.452-0.194,0.907-0.388,1.361-0.583c0.458-0.19,0.939-0.313,1.411-0.467
			c0.475-0.144,0.949-0.291,1.429-0.413c0.487-0.087,0.976-0.166,1.464-0.23c0.489-0.052,0.972-0.143,1.462-0.122
			C70.08,30.08,70.566,30.108,71.044,30.156z"/>
		<path fill="#6A2D33" d="M74.605,31.39c3.29,0.195,6.553,1.419,8.971,3.333C81.094,32.93,77.931,31.757,74.605,31.39z"/>
		<path fill="#6A2D33" d="M63.143,70.221c0.055-0.098,0.138-0.145,0.229-0.168c0.069,0.013,0.145,0.009,0.219-0.017
			c0.308,0.342,0.695,0.567,1.04,0.873c0.181,0.14,0.352,0.302,0.538,0.432l0.575,0.376c-0.23-0.036-0.515,0.071-0.735-0.011
			c-0.417-0.313-0.594-0.631-0.821-0.872C63.959,70.591,63.69,70.411,63.143,70.221z"/>
		<path fill="#6A2D33" d="M48.833,54.993l-0.058-0.083c-0.022-0.267-0.056-0.531-0.04-0.792c0.017-0.03,0.03-0.057,0.047-0.091
			C48.787,54.348,48.818,54.67,48.833,54.993z"/>
		<path fill="#6A2D33" d="M62.232,69.507c0.115-0.178,0.231-0.358,0.278-0.541c0.327,0.384,0.719,0.692,1.072,1.063
			c-0.074,0.003-0.146,0.008-0.211,0.024C63.016,69.975,62.693,69.525,62.232,69.507z"/>
		<path fill="#6A2D33" d="M57.746,59.534c-0.057-0.288-0.526-0.465-0.658-0.59c0.092-0.828,0.366-1.623,0.464-2.509
			c-0.103-0.136-0.103-0.424-0.317-0.708c0.176-0.161,0.324-0.331,0.456-0.506c-0.176,1.915-0.012,3.944,0.531,5.976
			C58.032,60.67,57.865,60.115,57.746,59.534z"/>
		<path fill="#6A2D33" d="M93.446,51.842c0.119,0.446,0.22,0.906,0.308,1.375c0.087,0.469,0.072,0.957,0.1,1.442
			c0.081,0.972-0.091,1.958-0.142,2.932c-0.066,0.484-0.159,0.964-0.219,1.444l-0.083,0.718c-0.049,0.235-0.092,0.47-0.13,0.706
			c-0.079,0.469-0.115,0.945-0.159,1.417c-0.071,0.464-0.112,0.934-0.116,1.415c1.103-1.882,1.777-4.429,2.191-6.594
			c0.263-1.086,0.372-2.077,0.614-2.869c0.265-0.793,0.478-1.373,0.921-1.626c0.429-0.253,0.728,0.028,0.947,0.672
			c0.165,0.648,0.226,1.659,0.186,2.802c-0.123,2.313-0.936,5.046-1.376,6.893c0.303-0.45,0.303-0.45,0.605-0.898
			c-0.317,0.455-0.576,0.904-0.522,1.39c0.649-0.862,1.468-2.769,2.098-3.292c0,0,0.079,0.255,0.158,0.51
			c0.082,0.257,0.147,0.517,0.147,0.517c0.451-0.627,0.827-1.453,1.188-2.382c0.318-0.933,0.529-1.979,0.763-3.045
			c0.128-1.062,0.291-2.154,0.399-3.179c0.074-1.02,0.185-1.987,0.38-2.829c-0.254,3.933-0.782,7.931-2,11.844
			c-1.202,3.906-3.033,7.723-5.597,11.143c-2.586,3.393-5.959,6.32-9.845,8.368c-3.888,2.036-8.273,3.071-12.55,3.041
			c-4.793,0.211-9.523-0.685-13.95-2.415c-0.568-0.194-1.102-0.451-1.638-0.707c-0.541-0.257-1.081-0.513-1.618-0.769
			c-0.519-0.3-1.035-0.598-1.551-0.896c-0.517-0.303-1.046-0.597-1.524-0.954c-0.977-0.69-1.992-1.365-2.885-2.173
			c-0.463-0.397-0.923-0.793-1.383-1.187c-0.428-0.434-0.852-0.867-1.275-1.298c-0.285-0.353-0.691-0.823-1.032-1.449
			c-0.352-0.619-0.732-1.339-1.109-2.104c-0.671-1.565-1.325-3.323-1.631-4.841c-0.963-2.573-1.455-5.298-1.799-8.068l-0.128-2.093
			l-0.058-1.053l0.02-1.053l0.046-2.122l0.199-2.119l0.187-1.119l0.281-1.094c0.2-0.727,0.391-1.46,0.636-2.171
			c0.548-1.401,1.086-2.816,1.847-4.119c0.686-1.346,1.561-2.578,2.444-3.802c0.44-0.612,0.961-1.166,1.449-1.742
			c0.494-0.574,0.998-1.139,1.564-1.649c0.551-0.523,1.108-1.042,1.672-1.554c0.602-0.467,1.206-0.936,1.813-1.405
			c0.599-0.48,1.247-0.891,1.902-1.298c0.659-0.399,1.295-0.843,1.988-1.192c2.726-1.495,5.681-2.603,8.771-3.446
			c1.25-0.292,2.824-0.101,3.278,0.343c0.466,0.464-0.158,1.099-2.961,1.964c-4.558,1.777-8.765,4.243-12.396,7.395
			c0.065-0.783,2.042-2.024,2.747-2.917c-3.189,1.745-5.574,3.77-7.73,6.646c0.755-0.929,1.468-1.902,2.302-2.767
			c0.844-0.856,1.658-1.748,2.608-2.497c-2.28,1.963-4.478,4.293-6.187,7.039c-1.73,2.722-3.057,5.787-3.775,8.974
			c-0.124,0.583-0.354,1.12-0.624,1.666c-0.265,0.546-0.596,1.094-0.801,1.707c-0.225,0.608-0.411,1.267-0.48,1.994
			c-0.076,0.725,0.077,1.529,0.379,2.39c0.356-4.317,1.655-8.534,3.664-12.306c2.015-3.774,4.7-7.145,7.897-9.928
			c-0.003,0.021-0.008,0.041-0.005,0.06c2.791-2.556,5.859-4.252,9.254-5.546c-1.026,0.497-2.059,0.99-2.972,1.395l0.922-0.369
			c0.313-0.109,0.631-0.201,0.944-0.301c0.626-0.198,1.25-0.394,1.873-0.59c0.631-0.163,1.267-0.296,1.896-0.444
			c0.628-0.147,1.253-0.3,1.895-0.371l1.904-0.271c0.634-0.089,1.28-0.088,1.917-0.132c1.276-0.111,2.558-0.017,3.832,0.04
			c-3.626,0.27-7.196,1.022-10.584,2.326c-3.391,1.292-6.611,3.146-9.389,5.539c-2.778,2.385-5.108,5.304-6.747,8.543
			c-1.644,3.233-2.583,6.787-2.696,10.269c0.177-0.475,0.321-0.966,0.442-1.472c0.06-0.253,0.113-0.51,0.165-0.769
			c0.066-0.257,0.135-0.515,0.203-0.775c0.128-0.522,0.243-1.056,0.353-1.593c0.118-0.535,0.294-1.056,0.439-1.583
			c0.576-2.106,1.537-4.07,2.877-5.2c-3.204,5.291-4.601,11.706-3.863,18.11c-0.153-0.459-0.313-0.909-0.44-1.371
			c-0.062,0.515-0.03,1.025,0.011,1.539c0.041,0.515,0.102,1.032,0.174,1.55c0.173,1.029,0.508,2.035,0.81,3.042
			c0.396,0.977,0.8,1.953,1.253,2.892c0.246,0.461,0.49,0.92,0.732,1.376c0.239,0.459,0.465,0.92,0.742,1.349
			c0.183,0.317,0.365,0.629,0.548,0.948c-0.181-0.313-0.365-0.631-0.548-0.948c-1.8-3.296-2.87-6.846-3.281-10.376
			c0.47,1.577,0.877,3.23,1.473,5.211c-0.043-0.58-0.082-1.276-0.175-2.009c-0.092-0.734-0.243-1.506-0.271-2.301l-0.249-1.521
			c-0.091-0.505-0.085-1.023-0.128-1.534c-0.026-0.512-0.068-1.022-0.075-1.532l0.069-1.527c-0.055,3.142,0.657,6.235,1.98,8.703
			c-0.853-4.033-1.132-8.303-0.172-12.268c-0.275,2.205-0.396,4.436-0.073,6.621c0.132,3.688,1.082,7.439,2.946,10.807
			c-0.094-0.113-0.165-0.243-0.247-0.364c0.133,0.261,0.309,0.497,0.475,0.736c0.403,0.632,0.763,1.302,1.22,1.905
			c0.464,0.596,0.913,1.211,1.408,1.789c0.488,0.479,1.011,0.917,1.549,1.319c0.549,0.391,1.163,0.691,1.748,1.001l0.514,0.416
			c-0.427-0.128-0.718-0.102-0.126,0.475c0.646,0.593,1.337,1.189,2.134,1.642c0.81,0.43,1.613,0.914,2.513,1.227
			c0.44,0.177,0.884,0.355,1.331,0.535c0.445,0.18,0.916,0.304,1.374,0.477c0.464,0.154,0.915,0.366,1.39,0.517
			c0.475,0.154,0.949,0.33,1.429,0.53c0.499,0.232,1.123,0.333,1.813,0.392c0.688,0.063,1.439,0.111,2.22,0.023
			c0.417,0.147,0.645,0.067,0.842-0.065c0.333-0.035,0.671-0.038,1.004-0.096c0.814-0.084,1.639-0.148,2.416-0.36
			c-0.785,0.096-1.599,0.218-2.416,0.36c-0.307,0.034-0.612,0.016-0.916,0.035c0.209-0.156,0.427-0.319,0.872-0.347
			c-5.599,0.029-11.258-1.927-15.878-5.345c0.372,0.078,0.858,0.232,1.078,0.265c-0.54-0.198-1.09-0.399-1.592-0.68
			c-0.724-0.583-1.466-1.149-2.119-1.816l-1.017-0.965l-0.938-1.045c0.436,0.368,0.87,0.678,1.323,0.871
			c-3.381-3.987-5.744-8.924-6.348-14.237c0-0.626-0.068-1.247-0.008-1.869l0.142-1.854c0.07-0.613,0.203-1.218,0.302-1.823
			c0.086-0.607,0.255-1.198,0.424-1.786c0.279-1.19,0.762-2.312,1.188-3.439c0.539-1.084,1.03-2.181,1.696-3.182
			c-1.736,1.977-3.032,4.542-3.671,7.332c0.581-3.753,2.062-7.399,4.328-10.487c2.243-3.106,5.372-5.549,8.83-7.046
			c-0.226,0.304-0.478,0.608-0.732,0.911c-0.253,0.304-0.479,0.657-0.699,0.976c-0.426,0.662-0.797,1.245-0.826,1.856
			c0.264,0.246,2.188-0.777,1.261,0.104c-1.519,1.782-2.866,3.091-3.722,4.432c-0.217,0.329-0.415,0.644-0.58,0.954
			c-0.137,0.332-0.244,0.656-0.313,0.976c-0.137,0.639-0.123,1.259,0.205,1.931c0.1,0.149,0.435,0.082,0.862-0.06
			c0.438-0.125,1.007-0.289,1.545-0.443c0.506-0.151,1.017-0.22,1.365-0.175c0.344,0.041,0.521,0.185,0.415,0.487
			c-0.45,0.937-1.354,2.509-1.875,4.349c-0.263,0.484-0.43,1.029-0.651,1.58c-0.057,0.06,0.048,0.217,0.161,0.403
			c-0.392,1.995-0.431,3.909-0.424,4.987c-0.028,0.402-0.065,0.806-0.015,1.206c-0.087,0.227-0.221,0.435-0.405,0.618
			c0.213,0.223,0.341,0.458,0.506,0.681c0.113,0.528,0.183,1.074,0.313,1.601c0.175,0.507,0.308,1.035,0.499,1.538l0.143,0.938
			c0.045,0.318,0.083,0.648,0.197,0.938c0.118-0.09,0.234-0.273,0.425-0.254c0.344,0.58,0.663,1.182,1.1,1.701
			c0.213,0.263,0.379,0.565,0.623,0.802l0.691,0.745c0.114,0.278,0.241,0.533,0.349,0.801c0.105,0.271,0.186,0.56,0.241,0.867
			c0.484,0.02,1.033,0.118,1.562,0.356c0.51,0.268,1.112,0.506,1.685,0.856c0.279,0.191,0.607,0.297,0.911,0.459
			c0.313,0.141,0.607,0.334,0.93,0.446c0.646,0.209,1.254,0.508,1.859,0.546l0.009-0.048l0.872,0.214
			c0.29,0.083,0.595,0.084,0.892,0.137l0.899,0.134l0.913,0.035c0.199,0.133,0.395,0.29,0.583,0.47
			c0.306-0.216,0.624-0.283,0.769-0.398c0.996,0.146,1.866,0.223,2.793,0.361c0.135-0.132,0.311-0.651,0.619-0.75
			c0.322-0.069,0.636-0.148,0.942-0.232c0.301-0.105,0.58-0.25,0.862-0.375c0.338-0.126,0.711-0.187,1.036-0.354
			c0.335-0.149,0.676-0.294,1.023-0.435c2.311-1.006,4.425-2.507,6.231-4.396c0.182,0.029,0.366,0.134,0.55,0.237
			c-0.002-0.503,0.552-0.829,0.582-1.247c0.026,0.098,0.077,0.182,0.178,0.23c0.276-1.252,0.885-1.167,1.471-2.144
			c0.096-0.235-0.003-0.531,0.039-0.776c0.075-0.101,0.119-0.214,0.179-0.323c0.614-0.441,1.031-1.003,1.206-1.645
			c0.092-0.32,0.158-0.652,0.224-0.99c0.034-0.169,0.067-0.34,0.102-0.513c0.015-0.176,0.033-0.353,0.059-0.532
			c0.204-0.698,0.443-1.407,0.545-2.14l0.213-1.106l0.094-1.124C92.757,53.32,93.189,52.783,93.446,51.842z"/>
		<path fill="#6A2D33" d="M66.024,71.905c1.012,0.67,2.116,1.208,3.276,1.675C68.036,73.292,66.735,73.241,66.024,71.905z"/>
		<path fill="#6A2D33" d="M60.912,45.819c0.546-0.093,1.122-0.182,1.593-0.401L61.78,46.08c-0.209,0.252-0.423,0.5-0.642,0.745
			c-0.106,0.124-0.227,0.239-0.325,0.37L60.532,47.6c-0.183,0.273-0.397,0.526-0.57,0.808c-0.306,0.584-0.692,1.13-0.925,1.754
			c-0.122,0.308-0.312,0.592-0.395,0.915c-0.102,0.317-0.211,0.632-0.326,0.947l-0.049-0.011c0.066-0.26,0.148-0.533,0.237-0.813
			c0.048-0.139,0.083-0.285,0.146-0.422c0.068-0.135,0.138-0.272,0.208-0.41c0.135-0.276,0.271-0.556,0.407-0.835
			c0.173-0.261,0.338-0.522,0.485-0.786c0.263-0.549,0.638-0.992,0.815-1.5C60.768,46.753,60.947,46.318,60.912,45.819z"/>
		<path fill="#6A2D33" d="M63.372,70.053c0.065-0.016,0.137-0.021,0.211-0.024c0.001,0.004,0.003,0.006,0.008,0.008
			C63.517,70.063,63.441,70.066,63.372,70.053z"/>
		<path fill="#6A2D33" d="M61.086,35.468l0.366-0.176c-0.89,0.52-1.663,1.213-2.489,1.808c0.292-0.291,0.623-0.574,0.978-0.853
			C60.294,35.968,60.666,35.683,61.086,35.468z"/>
		<path fill="#6A2D33" d="M71.669,32.992c2.047-0.117,4.143-0.084,6.175,0.364c2.564,0.749,4.913,2.036,6.675,3.757
			c-1.859-1.238-3.886-2.251-6.046-2.989C76.302,33.418,74.007,33.058,71.669,32.992z"/>
		<path fill="#6A2D33" d="M65.291,42.957c0.58-0.087,1.139-0.188,1.734-0.161c-0.535,0.122-1,0.394-1.498,0.597
			C65.548,43.219,65.375,43.083,65.291,42.957z"/>
		<path fill="#6A2D33" d="M54.845,41.248l0.39-0.48c-0.243,0.49-0.475,0.98-0.697,1.463C54.579,42.025,54.754,41.588,54.845,41.248z
			"/>
		<path fill="#6A2D33" d="M71.053,42.173c-0.391-0.037-0.774,0.042-1.166,0.047c0.211-0.122,0.416-0.282,0.623-0.491
			C70.669,41.918,70.852,42.044,71.053,42.173z"/>
		<path fill="#6A2D33" d="M76.935,42.717c0.247,0.093,0.495,0.169,0.73,0.27c0.223,0.127,0.44,0.253,0.656,0.376
			c-0.292-0.088-0.57-0.219-0.867-0.296c-0.301-0.066-0.598-0.141-0.889-0.224C76.738,42.745,76.885,42.653,76.935,42.717z"/>
	</g>
	<path fill-rule="evenodd" clip-rule="evenodd" fill="#555E7D" d="M71.681,43.989c0-0.001,0-0.002,0-0.007
		c-0.364-1.347-10.743,1.744-10.64-1.047c0.094-2.283,8.945-1.982,10.452-2.11c4.652-0.379,9.303-0.723,13.952-1.116
		c1.575-0.135,4.394-0.392,4.907,1.681c0.404,1.624-1.098,2.045-2.354,2.276c-3.595,0.664-7.088,0.35-10.698,0.212
		c-0.148-0.004-2.938-0.123-2.948,0.11c-0.047,1.177-0.412,2.429-0.023,3.584c0.238,0.707,0.86,1.251,1.112,1.976
		c0.272,0.797,0.331,1.73,0.1,2.545c-1.056,3.682-4.698,2.341-7.582,2.726c-3.152,0.424-5.399,2.217-4.287,5.623
		c0,0,3.607,6.351,17.176,3.032c-1.615,0.394-3.238,1.639-4.916,2.109c-3.558,0.997-7.579,0.762-10.808-1.142
		c-3.38-1.998-5.984-5.247-5.052-9.259c1.042-4.486,3.965-6.088,8.218-7.154c1.489-0.37,2.437-0.197,2.991-1.416
		C71.624,45.855,71.738,44.777,71.681,43.989z"/>
	<g>
		<path fill-rule="evenodd" clip-rule="evenodd" fill="#555E7D" d="M40.188,108.26c0,1.838,0.074,3.58-0.033,5.315
			c-0.048,0.778-0.372,1.571-0.714,2.289c-0.413,0.863-1.313,0.793-1.953,0.475c-0.466-0.232-0.953-0.909-1.003-1.429
			c-0.259-2.752-0.239-5.537-0.593-8.274c-0.398-3.054-1.118-6.067-1.649-9.104c-0.135-0.762-0.443-0.939-1.193-0.807
			c-3.462,0.603-6.938,1.119-10.4,1.73c-5.542,0.974-11.075,1.995-16.615,2.996c-0.688,0.125-1.387,0.202-2.067,0.36
			c-0.996,0.24-1.642-0.188-2.07-1.025c-0.453-0.891-0.132-1.715,0.545-2.259c0.54-0.433,1.276-0.74,1.964-0.849
			c4.886-0.775,9.791-1.438,14.676-2.231c4.261-0.689,8.509-1.485,12.755-2.279c1.022-0.193,2.012-0.578,3.02-0.862
			c0.177-0.052,0.373-0.087,0.556-0.067c3.599,0.401,7.094-0.572,10.64-0.851c1.255-0.1,2.506-0.369,3.748-0.308
			c0.531,0.026,1.139,0.63,1.487,1.128c0.124,0.18-0.36,0.854-0.65,1.244c-1.029,1.408-2.688,0.977-4.071,1.261
			c-2.458,0.505-4.955,0.794-7.534,1.189c0.223,2.891,0.441,5.712,0.672,8.697c0.486-0.259,0.858-0.407,1.167-0.634
			c2.311-1.71,4.591-1.624,6.517,0.411c0.715,0.755,0.96,0.501,1.319-0.212c0.464-0.916,0.878-1.926,2.101-2.052
			c1.242-0.125,2.125,0.444,2.565,1.809c0.576,1.789,1.027,3.613,1.534,5.423c0.091,0.321,0.14,0.674,0.312,0.947
			c0.322,0.512,0.876,0.761,1.271,0.21c0.719-1.003,1.294-2.104,1.926-3.17c0.053-0.093,0.058-0.215,0.074-0.325
			c0.169-0.963,0.316-2.002,1.511-2.184c1.177-0.178,1.655,0.792,2.175,1.602c0.525,0.806,0.856,2.086,1.57,2.353
			c1.349,0.5,2.913,0.426,4.395,0.574c0.216,0.02,0.44-0.059,0.661-0.087c0.881-0.113,1.194-0.495,1.114-1.481
			c-0.15-1.942-0.018-3.867,1.692-5.265c1.188-0.973,3.431-1.188,4.682-0.393c1.083,0.687,1.532,2.655,0.895,4.333
			c-0.31,0.814-0.743,1.594-1.203,2.34c-0.364,0.593-0.199,0.738,0.391,1.011c2.207,1.021,4.474,1.211,6.832,0.812
			c0.32-0.054,0.661,0.013,0.995,0.026c-0.075,0.521,0.021,1.164-0.25,1.542c-1.091,1.504-2.729,2.031-4.503,2.24
			c-2.506,0.301-4.718-0.402-6.779-1.814c-0.438-0.298-1.234-0.421-1.718-0.241c-1.805,0.676-3.634,1.121-5.557,1.163
			c-1.74,0.038-3.312-0.568-4.608-1.63c-0.887-0.727-1.002-0.068-1.365,0.399c-1.003,1.292-2.151,2.41-3.884,2.558
			c-1.239,0.103-2.313-0.388-2.875-1.5c-0.949-1.87-1.752-3.815-2.638-5.719c-0.138-0.293-0.386-0.535-0.585-0.8
			c-0.049,0.315-0.173,0.641-0.139,0.947c0.241,1.896,0.793,3.786-0.334,5.616c-0.544,0.878-1.446,1.398-2.167,1.077
			c-1.274-0.575-1.884-1.649-1.321-2.716c0.88-1.668,0.133-3.03-0.9-4.086c-0.441-0.445-1.671-0.165-2.531-0.112
			c-0.283,0.017-0.525,0.406-0.825,0.535C40.956,108.216,40.643,108.198,40.188,108.26z"/>
		<path fill-rule="evenodd" clip-rule="evenodd" fill="#555E7D" d="M88.524,97.396c3.344-0.3,6.545-0.583,9.742-0.876
			c0.884-0.079,1.816-0.035,2.638-0.314c1.558-0.527,2.28,0.604,2.834,1.513c0.377,0.612,0.262,1.717,0.006,2.483
			c-0.35,1.048-1.378,1.356-2.446,1.362c-1.872,0.009-3.761-0.138-5.613,0.044c-2.6,0.257-5.172,0.753-7.851,1.164
			c0.104,2.983,0.486,5.788,1.438,8.502c0.205,0.588,0.644,0.697,0.965,0.175c0.332-0.541,0.694-1.209,0.662-1.801
			c-0.092-1.781,0.224-3.445,0.991-5.027c0.417-0.855,1.126-1.213,2.098-1.035c0.252,0.049,0.692,0.031,0.771-0.112
			c0.874-1.535,2.301-0.987,3.558-0.961c1.215,0.021,2.431,0.181,3.646,0.267c1.913,0.133,3.599,0.792,5.135,2.328
			c0.535-0.546,1.131-1.012,1.538-1.603c1.244-1.797,3.423-1.268,4.005,0.27c0.634,1.668,1.146,3.393,1.584,5.124
			c0.313,1.251,0.42,2.55,0.593,3.831c0.073,0.514,0.251,1.11,0.071,1.537c-0.292,0.701-0.703,1.563-1.31,1.872
			c-0.861,0.435-1.696-0.321-2.018-1.06c-0.521-1.201-0.78-2.517-1.114-3.795c-0.286-1.117-0.52-2.251-0.778-3.375
			c-0.142-0.014-0.278-0.028-0.418-0.041c-0.198,0.47-0.423,0.927-0.586,1.411c-0.265,0.8-0.31,1.742-0.778,2.38
			c-0.349,0.475-1.22,0.775-1.858,0.775c-0.843,0.004-1.497-0.589-1.619-1.514c-0.061-0.474-0.029-0.97,0.026-1.449
			c0.157-1.359-0.462-2.234-2.033-2.649c0.046,0.758,0.13,1.474,0.124,2.187c-0.025,2.474-1.76,3.638-3.688,4.51
			c-1.752,0.785-3.596,1.076-5.493,0.283c-0.297-0.122-0.875,0.151-1.181,0.406c-0.561,0.472-0.98,1.117-1.529,1.605
			c-1.145,1.025-2.542,0.989-3.436-0.293c-0.783-1.13-1.397-2.432-1.822-3.741c-1.493-4.607-1.869-9.369-1.532-14.178
			c0.117-1.666,0.453-3.333,0.894-4.948c0.179-0.655,0.796-1.367,1.406-1.694c1.24-0.666,2.735,0.553,2.799,2.269
			c0.033,0.95-0.182,1.911-0.283,2.866C88.616,96.517,88.57,96.942,88.524,97.396z M95.349,105.565
			c-0.238,1.184-0.435,2.044-0.574,2.909c-0.159,1.012,0.356,1.646,1.325,1.601c0.944-0.049,1.917-0.267,2.785-0.632
			c0.873-0.362,1.016-1.308,0.321-1.748C98.008,106.934,96.718,106.311,95.349,105.565z"/>
		<path fill-rule="evenodd" clip-rule="evenodd" fill="#555E7D" d="M124.078,110.878c1.422,0.283,2.838,0.611,4.271,0.84
			c2.155,0.344,4.316,0.654,6.487,0.916c1.686,0.201,3.383,0.344,5.078,0.431c1.22,0.065,2.326,0.211,2.826,1.66
			c-0.762,0.952-1.955,1.377-3.065,1.433c-2.995,0.154-6.017,0.235-8.999,0.012c-2.944-0.221-5.867-0.767-8.767-1.33
			c-1.71-0.331-3.26-1.144-4.476-2.481c-0.18-0.197-0.462-0.321-0.717-0.427c-0.798-0.326-1.396-0.797-1.376-1.752
			c0.021-0.912-0.136-1.869,0.976-2.382c0.299-0.139,0.476-0.622,0.645-0.976c1.08-2.264,2.775-3.771,5.324-3.981
			c1.001-0.086,2.047,0.23,3.064,0.419c0.976,0.179,1.932,0.467,2.909,0.635c1.026,0.174,1.499,0.804,1.715,1.75
			c0.287,1.217-0.166,2.115-1.206,2.675c-1.509,0.814-3.063,1.546-4.598,2.313C124.143,110.715,124.109,110.795,124.078,110.878z"/>
	</g>
</g>
</svg>
