<?xml version="1.0" encoding="UTF-8" standalone="no"?>
<!-- Created with Inkscape (http://www.inkscape.org/) -->

<svg
   xmlns:dc="http://purl.org/dc/elements/1.1/"
   xmlns:cc="http://creativecommons.org/ns#"
   xmlns:rdf="http://www.w3.org/1999/02/22-rdf-syntax-ns#"
   xmlns:svg="http://www.w3.org/2000/svg"
   xmlns="http://www.w3.org/2000/svg"
   xmlns:sodipodi="http://sodipodi.sourceforge.net/DTD/sodipodi-0.dtd"
   xmlns:inkscape="http://www.inkscape.org/namespaces/inkscape"
   id="svg2"
   version="1.1"
   inkscape:version="0.91 r13725"
   xml:space="preserve"
   width="209.967"
   height="45"
   viewBox="0 0 209.967 45"
   sodipodi:docname="OneCert®.ai"><metadata
     id="metadata8"><rdf:RDF><cc:Work
         rdf:about=""><dc:format>image/svg+xml</dc:format><dc:type
           rdf:resource="http://purl.org/dc/dcmitype/StillImage" /><dc:title></dc:title></cc:Work></rdf:RDF></metadata><defs
     id="defs6"><clipPath
       clipPathUnits="userSpaceOnUse"
       id="clipPath16"><path
         d="M 0,612 792,612 792,0 0,0 0,612 Z"
         id="path18"
         inkscape:connector-curvature="0" /></clipPath></defs><sodipodi:namedview
     pagecolor="#ffffff"
     bordercolor="#666666"
     borderopacity="1"
     objecttolerance="10"
     gridtolerance="10"
     guidetolerance="10"
     inkscape:pageopacity="0"
     inkscape:pageshadow="2"
     inkscape:window-width="1855"
     inkscape:window-height="1176"
     id="namedview4"
     showgrid="false"
     inkscape:zoom="3.4902421"
     inkscape:cx="105.20712"
     inkscape:cy="28.597809"
     inkscape:window-x="1985"
     inkscape:window-y="24"
     inkscape:window-maximized="1"
     inkscape:current-layer="g10" /><g
     id="g10"
     inkscape:groupmode="layer"
     inkscape:label="OneCert®"
     transform="matrix(1.25,0,0,-1.25,0,45)"><path
       d="m 26.315185,17.829812 c 0,5.000894 -3.23469,8.740903 -8.698659,8.740903 -7.081717,0 -12.0210553,-6.697094 -12.0210553,-12.915422 0,-5.0443453 3.2346893,-8.7409032 8.6986593,-8.7409032 7.081314,0 12.021055,6.6970942 12.021055,12.9154222 M -5.896854e-5,13.350733 c 0,9.219267 7.56249436854,18.133974 18.14081396854,18.133974 8.218283,0 13.769557,-5.783415 13.769557,-13.350335 C 31.910312,8.9147027 24.347818,-4.45404e-6 13.726047,-4.45404e-6 5.507764,-4.45404e-6 -5.896854e-5,5.7838131 -5.896854e-5,13.350733"
       style="fill:#4f6f18;fill-opacity:1;fill-rule:nonzero;stroke:none"
       id="path20"
       inkscape:connector-curvature="0" /><path
       d="m 36.163285,23.483277 5.28936,0 -0.786946,-2.957086 c 1.836209,1.826151 4.065489,3.435449 6.994009,3.435449 4.283952,0 7.037864,-2.652525 7.037864,-6.870898 0,-1.217836 -0.34962,-2.696379 -0.699241,-4.044166 l -3.322396,-12.52476553 -5.28936,0 3.4097,12.74202053 c 0.218865,0.73907 0.34962,1.652347 0.34962,2.304917 0,2.304918 -1.486187,3.609254 -4.021234,3.609254 -2.972776,0 -5.420518,-2.348369 -6.338623,-5.739964 l -3.497005,-12.91622753 -5.288958,0 6.16321,22.96146653 z"
       style="fill:#4f6f18;fill-opacity:1;fill-rule:nonzero;stroke:none"
       id="path22"
       inkscape:connector-curvature="0" /><path
       d="m 72.116213,13.655293 c 0.13156,0.391059 0.218864,0.956728 0.218864,1.608896 0,2.391819 -1.398882,4.392177 -4.590121,4.392177 -3.584309,0 -6.469378,-2.522173 -7.605945,-6.001073 l 11.977202,0 z M 65.559529,4.3052704 c 2.229281,0 3.93393,0.7394726 5.901297,2.2180152 L 73.995873,3.1747385 C 71.810446,1.3916361 69.012681,-4.45404e-6 65.034898,-4.45404e-6 58.609373,-4.45404e-6 54.543884,3.8703576 54.543884,10.045637 c 0,6.783996 5.551676,13.916003 13.594546,13.916003 5.901296,0 9.223692,-3.913813 9.223692,-8.914707 0,-1.608895 -0.393876,-3.305096 -1.005409,-4.870943 l -16.785784,0 c 0,-3.4784978 2.054269,-5.8707196 5.9886,-5.8707196"
       style="fill:#4f6f18;fill-opacity:1;fill-rule:nonzero;stroke:none"
       id="path24"
       inkscape:connector-curvature="0" /><path
       d="m 78.301148,12.959271 c 0,9.784533 8.262136,18.525436 18.490433,18.525436 5.770139,0 9.660619,-2.565624 11.933749,-6.522888 l -4.45856,-3.000536 c -1.83621,2.783281 -4.06549,4.609432 -8.087124,4.609432 -6.556683,0 -12.282969,-6.262181 -12.282969,-13.393786 0,-5.0008942 3.453152,-8.2625392 8.305186,-8.2625392 3.453151,0 5.726687,1.3916406 8.130577,3.4789003 L 103.8733,4.8270854 C 100.98823,2.0438042 97.403517,-4.45404e-6 92.114558,-4.45404e-6 84.246297,-4.45404e-6 78.301148,4.9574385 78.301148,12.959271"
       style="fill:#4f6f18;fill-opacity:1;fill-rule:nonzero;stroke:none"
       id="path26"
       inkscape:connector-curvature="0" /><path
       d="m 122.29332,13.655293 c 0.13116,0.391059 0.21847,0.956728 0.21847,1.608896 0,2.391819 -1.39848,4.392177 -4.58972,4.392177 -3.58431,0 -6.46938,-2.522173 -7.60595,-6.001073 l 11.9772,0 z m -6.55708,-9.3500226 c 2.22928,0 3.93473,0.7394726 5.9013,2.2180152 l 2.53544,-3.3485471 C 121.98716,1.3916361 119.18979,-4.45404e-6 115.21201,-4.45404e-6 c -6.42593,0 -10.49142,3.87036205404 -10.49142,10.04564145404 0,6.783996 5.55168,13.916003 13.59495,13.916003 5.9009,0 9.22329,-3.913813 9.22329,-8.914707 0,-1.608895 -0.39307,-3.305096 -1.00541,-4.870943 l -16.78538,0 c 0,-3.4784978 2.05427,-5.8707196 5.9882,-5.8707196"
       style="fill:#4f6f18;fill-opacity:1;fill-rule:nonzero;stroke:none"
       id="path28"
       inkscape:connector-curvature="0" /><path
       d="m 131.52989,23.483277 5.28936,0 -1.35503,-5.175101 c 2.53505,3.653107 5.55128,5.87072 9.66022,5.610013 l -1.48619,-5.566562 -0.30617,0 c -4.63317,0 -8.65521,-2.957085 -10.35986,-9.3061688 l -2.31698,-8.52364773 -5.28896,0 6.16361,22.96146653 z"
       style="fill:#4f6f18;fill-opacity:1;fill-rule:nonzero;stroke:none"
       id="path30"
       inkscape:connector-curvature="0" /><path
       d="m 143.7336,4.6536835 c 0,0.8694233 0.13116,1.7827 0.39388,2.6521234 l 3.10353,11.6549391 -2.92892,0 1.22387,4.522531 2.92892,0 1.70465,6.305632 5.28936,0 -1.70465,-6.305632 6.16321,0 -1.22387,-4.522531 -6.16361,0 -2.97238,-11.0892708 c -0.0873,-0.4349129 -0.17461,-0.9567278 -0.17461,-1.3047385 0,-1.173983 0.78655,-1.7827 2.31659,-1.7827 1.04926,0 2.22968,0.2607063 3.36585,0.7390701 l -1.22387,-4.56598117 c -1.26773,-0.56566831 -2.71006,-0.82677693 -4.32741,-0.82677693 -3.71546,0 -5.77054,1.7831024 -5.77054,4.5233348"
       style="fill:#4f6f18;fill-opacity:1;fill-rule:nonzero;stroke:none"
       id="path32"
       inkscape:connector-curvature="0" /><path
       d="m 15.380004,7.4369647 4.3443,3.1493963 c 0,0 6.842333,14.769736 18.897586,24.545418 l -0.651766,0.868216 c 0,0 -6.624676,-3.040768 -20.852481,-21.069736 0,0 -1.303129,3.801565 -4.127045,6.407823 0,0 -3.1497987,-0.651766 -4.7788108,-1.954895 0,0 3.1497988,-0.217255 7.1682168,-12.05485"
       style="fill:#78a22e;fill-opacity:1;fill-rule:nonzero;stroke:none"
       id="path34"
       inkscape:connector-curvature="0" /><path
       d="m 165.52189,27.731421 c -0.14725,0.08248 -0.38382,0.123514 -0.7089,0.123514 l -0.50009,0 0,-1.202548 0.52906,0 c 0.24824,0 0.43411,0.02494 0.55802,0.07443 0.22853,0.09052 0.34319,0.263523 0.34319,0.518596 0,0.241797 -0.0736,0.403532 -0.22128,0.486008 m -0.63165,0.521413 c 0.41198,0 0.71413,-0.03983 0.90644,-0.11949 0.34318,-0.142826 0.51457,-0.422441 0.51457,-0.839652 0,-0.296513 -0.10782,-0.514573 -0.32387,-0.654582 -0.11426,-0.07403 -0.27479,-0.127537 -0.47957,-0.160527 0.2599,-0.04144 0.44939,-0.149665 0.56888,-0.325078 0.1203,-0.175414 0.18065,-0.346804 0.18065,-0.514171 l 0,-0.242602 c 0,-0.07684 0.002,-0.158918 0.008,-0.247027 0.006,-0.08731 0.0153,-0.144837 0.029,-0.172195 l 0.0209,-0.04144 -0.54716,0 c -0.003,0.01086 -0.006,0.02172 -0.008,0.03299 -0.003,0.01086 -0.005,0.02333 -0.008,0.03701 l -0.0125,0.106616 0,0.262718 c 0,0.383415 -0.1042,0.63688 -0.31341,0.759991 -0.12351,0.07121 -0.34036,0.106616 -0.65136,0.106616 l -0.46147,0 0,-1.305945 -0.58498,0 0,3.316763 1.16232,0 z m -1.78029,0.170988 c -0.50491,-0.508136 -0.75798,-1.122083 -0.75798,-1.841439 0,-0.725392 0.25146,-1.343362 0.75396,-1.854314 0.50492,-0.51055 1.11887,-0.766429 1.84144,-0.766429 0.72217,0 1.33572,0.255879 1.84184,0.766429 0.50532,0.510952 0.75758,1.128922 0.75758,1.854314 0,0.719356 -0.25226,1.333303 -0.75758,1.841439 -0.50854,0.51055 -1.12208,0.766026 -1.84184,0.766026 -0.71694,0 -1.32968,-0.255476 -1.83742,-0.766026 m 3.97859,-3.983013 c -0.59021,-0.593026 -1.30393,-0.88954 -2.14117,-0.88954 -0.83724,0 -1.54975,0.296514 -2.13715,0.88954 -0.58498,0.59021 -0.87707,1.305141 -0.87707,2.145597 0,0.831605 0.29531,1.542512 0.88512,2.132722 0.58779,0.587394 1.29709,0.881091 2.1291,0.881091 0.83724,0 1.55096,-0.293697 2.14117,-0.881091 0.59021,-0.587394 0.88512,-1.298703 0.88512,-2.132722 0,-0.83764 -0.29491,-1.552571 -0.88512,-2.145597"
       style="fill:#4f6f18;fill-opacity:1;fill-rule:nonzero;stroke:none"
       id="path36"
       inkscape:connector-curvature="0" /></g></svg>