<?xml version="1.0" encoding="utf-8"?>
<!-- Generator: Adobe Illustrator 16.0.0, SVG Export Plug-In . SVG Version: 6.00 Build 0)  -->
<!DOCTYPE svg PUBLIC "-//W3C//DTD SVG 1.1//EN" "http://www.w3.org/Graphics/SVG/1.1/DTD/svg11.dtd">
<svg version="1.1" id="Layer_1" xmlns="http://www.w3.org/2000/svg" xmlns:xlink="http://www.w3.org/1999/xlink" x="0px" y="0px"
	 width="300px" height="300px" viewBox="0 0 300 300" enable-background="new 0 0 300 300" xml:space="preserve">
<g>
	<g>
		<path fill="#F3F4F4" d="M141.968,67.176h16.291c1.744,0,3.158-1.414,3.158-3.156c0-1.746-1.414-3.16-3.158-3.16h-16.291
			c-1.744,0-3.158,1.414-3.158,3.16C138.81,65.762,140.224,67.176,141.968,67.176L141.968,67.176z"/>
		<path fill="#F3F4F4" d="M225.429,78.281c0.76,1.348,1.207,2.512,1.426,3.16c0,0.004,0,0.004,0.002,0.004
			c0.021,0.063,0.039,0.121,0.055,0.172c0.004,0.008,0.008,0.02,0.01,0.027c0.014,0.043,0.025,0.078,0.035,0.113
			c0.004,0.012,0.008,0.027,0.012,0.039c0.008,0.027,0.018,0.051,0.023,0.074c0.002,0.012,0.006,0.023,0.01,0.031
			c0.004,0.016,0.008,0.031,0.012,0.043c0,0.008,0.004,0.02,0.006,0.023c0.002,0.012,0.004,0.023,0.006,0.023l7.088,29.199
			l-23.029,9.656v-18.84L225.429,78.281L225.429,78.281z M211.083,134.484v-6.789l24.537-10.289l1.623,6.688L211.083,134.484
			L211.083,134.484z M150.226,84.996c-12.48,0-25.795-11.395-27.256-28.68h54.514C176.023,73.602,162.708,84.996,150.226,84.996
			L150.226,84.996z M88.919,120.848l-23.029-9.656l7.084-29.188c0.008-0.031,0.439-1.66,1.598-3.723l14.348,23.727V120.848
			L88.919,120.848z M64.382,117.406l24.537,10.289v6.789l-26.162-10.391L64.382,117.406L64.382,117.406z M244.029,125.27
			l-10.865-44.766c-0.109-0.445-2.752-10.902-13.143-15.32c-7.521-3.195-31.307-12.227-37.262-14.48
			c-0.543-0.438-1.234-0.703-1.986-0.703h-0.453h-60.641c-0.1,0-0.201,0.004-0.301,0.016c-0.043,0.004-0.086,0.012-0.129,0.016
			c-0.055,0.008-0.111,0.016-0.166,0.027c-0.051,0.008-0.102,0.023-0.15,0.035c-0.047,0.012-0.092,0.02-0.137,0.035
			c-0.051,0.012-0.104,0.031-0.154,0.051c-0.025,0.008-0.053,0.016-0.078,0.023c-1.227,0.465-30.145,11.395-38.584,14.98
			c-9.99,4.246-12.818,14.074-13.115,15.219c0,0,0,0-0.002,0c-0.004,0.023-0.008,0.039-0.014,0.055
			c-0.004,0.02-0.008,0.035-0.01,0.047l-7.723,31.813l0,0l-3.145,12.953c-0.371,1.531,0.441,3.098,1.904,3.68l31.043,12.332v92.723
			v12.84c0,1.742,1.412,3.156,3.156,3.156h115.848c1.746,0,3.16-1.414,3.16-3.156v-12.84v-60.125c0-1.746-1.414-3.16-3.16-3.16
			c-1.742,0-3.156,1.414-3.156,3.16v56.965h-77.609c-1.746,0-3.16,1.414-3.16,3.16c0,1.742,1.414,3.156,3.16,3.156h77.609v6.523
			H95.234v-6.523h21.396c1.744,0,3.158-1.414,3.158-3.156c0-1.746-1.414-3.16-3.158-3.16H95.234v-91.703v-13.543v-24.473
			c0-0.574-0.158-1.141-0.455-1.633L78.853,73.156c1.029-0.828,2.221-1.574,3.598-2.16c6.465-2.746,25.852-10.141,34.318-13.355
			c2.031,18.66,16.525,33.672,33.459,33.672c16.883,0,31.342-14.922,33.441-33.508c8.678,3.297,27.525,10.492,33.883,13.191
			c1.377,0.586,2.568,1.332,3.596,2.156l-15.926,26.34c-0.297,0.492-0.455,1.059-0.455,1.633v24.473v13.539v24.215
			c0,1.746,1.414,3.156,3.158,3.156s3.158-1.41,3.158-3.156v-22.07l31.043-12.332C243.587,128.367,244.4,126.801,244.029,125.27
			L244.029,125.27z"/>
	</g>
</g>
</svg>
