<?xml version="1.0" encoding="utf-8"?>
<!-- Generator: Adobe Illustrator 16.0.0, SVG Export Plug-In . SVG Version: 6.00 Build 0)  -->
<!DOCTYPE svg PUBLIC "-//W3C//DTD SVG 1.1//EN" "http://www.w3.org/Graphics/SVG/1.1/DTD/svg11.dtd">
<svg version="1.1" id="Layer_1" xmlns="http://www.w3.org/2000/svg" xmlns:xlink="http://www.w3.org/1999/xlink" x="0px" y="0px"
	 width="300px" height="300px" viewBox="0 0 300 300" enable-background="new 0 0 300 300" xml:space="preserve">
<g>
	<path fill="#F3F4F4" d="M218.398,53.527c0-1.947-1.578-3.527-3.527-3.527c-1.945,0-3.523,1.58-3.523,3.527v5.512h-7.367v-5.512
		c0-1.947-1.576-3.527-3.523-3.527c-1.949,0-3.527,1.58-3.527,3.527v5.512h-7.363v-5.512c0-1.947-1.578-3.527-3.527-3.527
		c-1.947,0-3.525,1.58-3.525,3.527v5.512h-7.363v-5.512c0-1.947-1.578-3.527-3.525-3.527c-1.949,0-3.527,1.58-3.527,3.527v5.512
		h-7.363v-5.512c0-1.947-1.578-3.527-3.527-3.527c-1.947,0-3.525,1.58-3.525,3.527v5.512h-7.365v-5.512
		c0-1.947-1.578-3.527-3.525-3.527s-3.525,1.58-3.525,3.527v5.512H131.9v-5.512c0-1.947-1.578-3.527-3.525-3.527
		s-3.525,1.58-3.525,3.527v5.512h-7.365v-5.512c0-1.947-1.578-3.527-3.525-3.527s-3.525,1.58-3.525,3.527v5.512h-7.365v-5.512
		c0-1.947-1.578-3.527-3.525-3.527s-3.525,1.58-3.525,3.527v5.512h-7.365v-5.512c0-1.947-1.578-3.527-3.525-3.527
		s-3.525,1.58-3.525,3.527l0.002,120.574c0,1.947,1.578,3.527,3.525,3.527s3.525-1.58,3.525-3.527V89.305l12.693-7.359l14.453,8.377
		c0.557,0.322,1.166,0.477,1.766,0.477c1.215,0,2.4-0.631,3.053-1.76c0.977-1.684,0.402-3.84-1.281-4.816l-16.223-9.402
		c-1.094-0.635-2.443-0.633-3.537,0l-10.924,6.332V66.09h122.693v15.063l-10.924-6.332c-1.094-0.635-2.443-0.633-3.537,0
		l-14.445,8.375l-14.449-8.375c-1.094-0.635-2.443-0.635-3.537,0l-14.449,8.377l-14.449-8.377c-1.094-0.635-2.443-0.633-3.537,0
		l-7.584,4.396c-1.686,0.977-2.26,3.135-1.283,4.818c0.977,1.686,3.135,2.258,4.818,1.281l5.816-3.371l14.451,8.377
		c1.094,0.635,2.443,0.635,3.537,0l14.449-8.377l14.449,8.377c1.094,0.635,2.443,0.635,3.537,0l14.445-8.377l12.691,7.359v121.395
		l-12.695,7.357l-14.451-8.377c-1.684-0.977-3.842-0.402-4.818,1.281c-0.977,1.686-0.402,3.842,1.281,4.82l16.219,9.4
		c0.547,0.318,1.158,0.475,1.77,0.475c0.609,0,1.221-0.156,1.768-0.475l10.928-6.334v15.064H88.656V218.85l10.918,6.332
		c1.094,0.635,2.443,0.635,3.537,0l14.449-8.377l14.449,8.377c1.094,0.635,2.443,0.635,3.537,0l14.449-8.377l14.451,8.377
		c0.547,0.318,1.158,0.475,1.768,0.475c0.611,0,1.223-0.156,1.77-0.475l5.807-3.367c1.684-0.977,2.26-3.135,1.281-4.818
		c-0.975-1.684-3.131-2.258-4.818-1.281l-4.039,2.34l-14.449-8.375c-1.094-0.635-2.443-0.633-3.537,0l-14.449,8.375l-14.449-8.375
		c-1.094-0.635-2.443-0.635-3.537,0l-14.449,8.375l-12.688-7.355v-24.141c0-1.945-1.58-3.525-3.527-3.525s-3.525,1.58-3.525,3.525
		l-0.002,59.918c0,1.945,1.58,3.523,3.527,3.523c1.945,0,3.525-1.578,3.525-3.523v-5.514h7.365v5.514
		c0,1.945,1.578,3.523,3.525,3.523s3.525-1.578,3.525-3.523v-5.514h7.365v5.514c0,1.945,1.578,3.523,3.525,3.523
		s3.525-1.578,3.525-3.523v-5.514h7.365v5.514c0,1.945,1.578,3.523,3.525,3.523s3.525-1.578,3.525-3.523v-5.514h7.365v5.514
		c0,1.945,1.578,3.523,3.525,3.523s3.525-1.578,3.525-3.523v-5.514h7.365v5.514c0,1.945,1.578,3.523,3.525,3.523
		s3.525-1.578,3.525-3.523v-5.514h7.365v5.514c0,1.945,1.578,3.523,3.525,3.523s3.525-1.578,3.525-3.523v-5.514h7.365v5.514
		c0,1.945,1.578,3.523,3.525,3.523s3.525-1.578,3.525-3.523v-5.514h7.365v5.514c0,1.945,1.578,3.523,3.525,3.523
		s3.525-1.578,3.525-3.523v-5.514h7.365v5.514c0,1.945,1.578,3.523,3.525,3.523s3.525-1.578,3.525-3.523V53.527L218.398,53.527
		L218.398,53.527z"/>
	<path fill="#F3F4F4" d="M162.152,124.293l-9.295-12.852c-0.662-0.918-1.725-1.459-2.855-1.459s-2.195,0.541-2.857,1.459
		l-26.4,36.492c-0.893,1.234-0.893,2.9,0,4.133l26.4,36.494c0.664,0.916,1.727,1.459,2.857,1.459s2.193-0.543,2.855-1.459
		l26.396-36.494c0.891-1.232,0.891-2.898,0-4.133l-8.996-12.438c-1.143-1.578-3.348-1.93-4.924-0.789
		c-1.578,1.141-1.932,3.346-0.791,4.922l7.502,10.373L150,180.479l-22.049-30.477L150,119.523l6.438,8.902
		c1.143,1.578,3.348,1.93,4.924,0.791C162.939,128.074,163.293,125.871,162.152,124.293L162.152,124.293z"/>
	<path fill="#F3F4F4" d="M182.008,110.641c-1.947,0-3.525,1.578-3.525,3.525v3.172h-3.172c-1.947,0-3.525,1.58-3.525,3.525
		c0,1.947,1.578,3.527,3.525,3.527h3.172v3.172c0,1.947,1.578,3.525,3.525,3.525s3.525-1.578,3.525-3.525v-3.172h3.174
		c1.947,0,3.525-1.58,3.525-3.527c0-1.945-1.578-3.525-3.525-3.525h-3.174v-3.172C185.533,112.219,183.955,110.641,182.008,110.641
		L182.008,110.641z"/>
	<path fill="#F3F4F4" d="M182.008,192.725c1.947,0,3.525-1.58,3.525-3.525v-3.174h3.174c1.947,0,3.525-1.58,3.525-3.525
		c0-1.947-1.578-3.527-3.525-3.527h-3.174v-3.172c0-1.947-1.578-3.525-3.525-3.525s-3.525,1.578-3.525,3.525v3.172h-3.172
		c-1.947,0-3.525,1.58-3.525,3.527c0,1.945,1.578,3.525,3.525,3.525h3.172v3.174C178.482,191.145,180.061,192.725,182.008,192.725
		L182.008,192.725z"/>
	<path fill="#F3F4F4" d="M150,160.225c1.947,0,3.525-1.578,3.525-3.525v-3.172h3.174c1.947,0,3.525-1.58,3.525-3.527
		c0-1.945-1.578-3.525-3.525-3.525h-3.174v-3.172c0-1.947-1.578-3.525-3.525-3.525s-3.525,1.578-3.525,3.525v3.172h-3.174
		c-1.947,0-3.525,1.58-3.525,3.525c0,1.947,1.578,3.527,3.525,3.527h3.174v3.172C146.475,158.646,148.053,160.225,150,160.225
		L150,160.225z"/>
	<path fill="#F3F4F4" d="M115.729,110.641c-1.947,0-3.525,1.578-3.525,3.525v3.172h-3.172c-1.947,0-3.527,1.58-3.527,3.525
		c0,1.947,1.58,3.527,3.527,3.527h3.172v3.172c0,1.947,1.578,3.525,3.525,3.525s3.525-1.578,3.525-3.525v-3.172h3.174
		c1.947,0,3.525-1.58,3.525-3.527c0-1.945-1.578-3.525-3.525-3.525h-3.174v-3.172C119.254,112.219,117.676,110.641,115.729,110.641
		L115.729,110.641z"/>
	<path fill="#F3F4F4" d="M109.031,186.025h3.172v3.174c0,1.947,1.578,3.525,3.525,3.525s3.525-1.578,3.525-3.525v-3.174h3.174
		c1.947,0,3.525-1.578,3.525-3.525s-1.578-3.525-3.525-3.525h-3.174v-3.174c0-1.945-1.578-3.523-3.525-3.523
		s-3.525,1.578-3.525,3.523v3.174h-3.172c-1.947,0-3.527,1.578-3.527,3.525S107.084,186.025,109.031,186.025L109.031,186.025z"/>
</g>
</svg>
