<?xml version="1.0" encoding="utf-8"?>
<!-- Generator: Adobe Illustrator 16.0.0, SVG Export Plug-In . SVG Version: 6.00 Build 0)  -->
<!DOCTYPE svg PUBLIC "-//W3C//DTD SVG 1.1//EN" "http://www.w3.org/Graphics/SVG/1.1/DTD/svg11.dtd">
<svg version="1.1" id="Layer_1" xmlns="http://www.w3.org/2000/svg" xmlns:xlink="http://www.w3.org/1999/xlink" x="0px" y="0px"
	 width="300px" height="300px" viewBox="0 0 300 300" enable-background="new 0 0 300 300" xml:space="preserve">
<g>
	<g>
		<defs>
			<rect id="SVGID_17_" x="82.296" y="38.845" width="118.604" height="200"/>
		</defs>
		<clipPath id="SVGID_2_">
			<use xlink:href="#SVGID_17_"  overflow="visible"/>
		</clipPath>
		<path clip-path="url(#SVGID_2_)" fill="#F3F4F4" d="M115.112,58.397c0,3.777,11.365,6.861,25.395,6.861
			c14.012,0,25.379-3.084,25.379-6.861c0-2.594-5.344-4.854-13.213-6.023v4.723c0,4.949-10.352,5.195-12.416,5.195
			c-2.08,0-12.414-0.246-12.414-5.195v-4.635C120.237,53.64,115.112,55.849,115.112,58.397L115.112,58.397z M115.112,58.397"/>
		<path clip-path="url(#SVGID_2_)" fill="#F3F4F4" d="M130.306,41.575v15.574c0,1.631,4.561,2.959,10.201,2.959
			c5.625,0,10.184-1.328,10.184-2.959V41.575c0-1.631-4.559-2.959-10.184-2.959C134.866,38.616,130.306,39.944,130.306,41.575
			L130.306,41.575z M130.306,41.575"/>
	</g>
	<path fill="#F3F4F4" d="M107.974,84.542l0.283,0.332c7.322,8.488,34.463,36.762,75.668,43.701l1.248,0.221l-1.549-6.994
		l-0.564-0.096c-37.477-6.078-63.305-31.254-72.674-41.791l-1.115-1.248L107.974,84.542z M107.974,84.542"/>
	<path fill="#F3F4F4" d="M110.003,75.288l0.283,0.316c6.973,8.355,32.75,36.133,71.441,43.102l1.266,0.234l-1.35-6.121l-0.549-0.121
		c-35.479-7.039-60.008-31.02-68.895-41.004l-1.115-1.248L110.003,75.288z M110.003,75.288"/>
	<path fill="#F3F4F4" d="M92.063,156.679l-1.746,7.945l1.713-1.049c18.506-11.402,37.328-34.119,42.652-40.805l0.6-0.732
		l-0.799-0.516c-1.332-0.852-2.613-1.701-3.861-2.549l-0.648-0.451l-0.5,0.633c-4.41,5.592-20.086,24.779-37.145,37.34
		L92.063,156.679z M92.063,156.679"/>
	<path fill="#F3F4F4" d="M105.909,93.86l0.299,0.33c7.674,8.678,36.162,37.529,79.896,44.252l1.23,0.201l-1.529-7.004l-0.584-0.104
		c-39.822-6.09-67.031-31.717-76.883-42.451l-1.098-1.199L105.909,93.86z M105.909,93.86"/>
	<path fill="#F3F4F4" d="M95.276,142.138l-2.297,10.42l1.881-1.533c14.943-12.104,28.49-28.611,32.301-33.383l0.549-0.697
		l-0.715-0.518c-1.398-1.016-2.746-2.01-4.027-3.012l-0.666-0.518l-0.516,0.668c-3.795,4.809-13.947,17.207-26.311,28.389
		L95.276,142.138z M95.276,142.138"/>
	<path fill="#F3F4F4" d="M89.534,168.163l-1.914,8.656l1.582-0.768c24.18-11.631,46.18-40.621,52.336-49.24l0.551-0.766
		l-0.834-0.461c-1.014-0.588-1.996-1.152-2.979-1.736l-0.648-0.377l-0.465,0.594c-5.926,7.521-26.844,32.961-47.279,43.914
		L89.534,168.163z M89.534,168.163"/>
	<path fill="#F3F4F4" d="M99.003,125.196l-2.695,12.215l2.047-1.98c10.102-9.83,18.256-19.781,21.283-23.598l0.518-0.666
		l-0.65-0.531c-1.363-1.115-2.662-2.215-3.861-3.279l-0.682-0.594l-0.549,0.715c-2.646,3.342-8.137,10.08-15.244,17.535
		L99.003,125.196z M99.003,125.196"/>
	<path fill="#F3F4F4" d="M100.185,119.894l2.164-2.418c4.809-5.389,8.387-9.797,10.084-11.945l0.5-0.621l-0.584-0.547
		c-2.113-1.965-4.143-3.992-6.057-6.025l-1.115-1.182L100.185,119.894z M100.185,119.894"/>
	<path fill="#F3F4F4" d="M112.882,62.237l-1.064,4.848l0.266,0.316c8.488,10.117,32.068,34.48,67.615,42.23l1.297,0.289
		l-1.365-6.227l-0.516-0.127c-32.283-7.607-54.65-28.373-65.117-40.088L112.882,62.237z M112.882,62.237"/>
	<path fill="#F3F4F4" d="M108.972,177.384l-0.715,0.533c-0.934,0.682-1.881,1.363-2.846,2.029l-0.684,0.486l0.467,0.695
		c2.928,4.449,13.762,20.152,29.738,35.463l0.232,0.236h0.35c0.666,0,1.33,0,1.996,0c0.865,0,1.732,0,2.596-0.016h2.547l-1.58-1.484
		c-16.842-15.744-28.439-32.453-31.602-37.207L108.972,177.384z M108.972,177.384"/>
	<path fill="#F3F4F4" d="M131.12,76.104l0.385,0.32l0.482-0.184c4.01-1.65,8.42-4.197,13.113-7.543l2.313-1.645l-2.83,0.098
		c-1.396,0.055-2.445,0.055-2.895,0.055c-0.4,0-1.264,0-2.396-0.039l-0.266-0.016l-0.232,0.148
		c-3.396,2.297-6.641,4.168-9.637,5.563l-1.215,0.559l1.016,0.875C129.657,74.89,130.39,75.489,131.12,76.104L131.12,76.104z
		 M131.12,76.104"/>
	<path fill="#F3F4F4" d="M138.261,81.612l0.398,0.283l0.434-0.184c6.707-2.828,14.361-7.986,22.748-15.377l2.879-2.523l-3.678,1.066
		c-2.33,0.676-5.125,1.225-8.305,1.621l-0.248,0.037l-0.184,0.146c-6.107,4.949-11.865,8.693-17.074,11.119l-1.266,0.596
		l1.115,0.857C136.114,80.05,137.179,80.831,138.261,81.612L138.261,81.612z M138.261,81.612"/>
	<path fill="#F3F4F4" d="M146.581,216.624l0.232,0.219h0.334c1.713-0.016,3.361-0.07,4.992-0.135l2.146-0.084l-1.631-1.395
		c-19.537-16.895-33.15-36.395-36.861-41.973l-0.516-0.787l-0.732,0.604c-0.898,0.732-1.813,1.449-2.746,2.18l-0.633,0.482
		l0.434,0.666C115.079,181.644,127.892,200.083,146.581,216.624L146.581,216.624z M146.581,216.624"/>
	<path fill="#F3F4F4" d="M171.575,73.03c-7.488,6.703-14.477,11.75-20.801,15.023l-1.396,0.73l1.381,0.77
		c1.23,0.68,2.479,1.344,3.76,2.01l0.367,0.184l0.365-0.166c5.574-2.496,11.816-6.607,18.539-12.215l0.398-0.332l-1.529-6.973
		L171.575,73.03z M171.575,73.03"/>
	<path fill="#F3F4F4" d="M146.099,86.823l0.383,0.236l0.416-0.188c7.256-3.262,15.576-9.189,24.711-17.623l0.352-0.332l-1.482-6.791
		l-1.098,1.049c-9.785,9.365-18.771,16.059-26.709,19.918l-1.35,0.648l1.25,0.838C143.72,85.319,144.901,86.089,146.099,86.823
		L146.099,86.823z M146.099,86.823"/>
	<path fill="#F3F4F4" d="M173.806,82.944c-5.025,4.027-9.818,7.238-14.195,9.57l-1.547,0.814l1.598,0.715
		c1.348,0.615,2.729,1.211,4.143,1.781l0.334,0.135l0.332-0.152c3.545-1.547,7.389-3.773,11.434-6.617l0.449-0.334l-1.48-6.756
		L173.806,82.944z M173.806,82.944"/>
	<path fill="#F3F4F4" d="M167.749,97.358l1.848,0.629c2.445,0.832,5.074,1.615,8.037,2.383l1.348,0.348l-1.98-8.938l-1.031,0.699
		c-2.23,1.502-4.41,2.828-6.508,3.945L167.749,97.358z M167.749,97.358"/>
	<path fill="#F3F4F4" d="M187.368,141.356c-4.625-0.654-8.752-1.432-12.596-2.381l-2.531-0.633l1.664,2.014
		c3.496,4.162,9.137,10.701,16.193,18.123l2.113,2.23l-4.26-19.273L187.368,141.356z M187.368,141.356"/>
	<path fill="#F3F4F4" d="M134.399,66.937l-2.613-0.297c-1.598-0.188-3.127-0.402-4.543-0.652l-0.283-0.047l-0.266,0.145
		c-1.082,0.588-2.146,1.148-3.211,1.652l-1.133,0.533l0.9,0.865c0.648,0.611,1.33,1.25,2.012,1.877l0.4,0.365l0.516-0.199
		c1.863-0.77,3.811-1.73,5.941-2.941L134.399,66.937z M134.399,66.937"/>
	<path fill="#F3F4F4" d="M199.052,202.944l0.865-0.715l-0.898-0.633c-1.266-0.91-2.531-1.848-3.795-2.795l-0.732-0.566l-0.482,0.781
		c-2.047,3.146-4.377,6.209-6.973,9.107l-2.613,2.91l3.596-1.566C193.542,207.038,197.071,204.579,199.052,202.944L199.052,202.944z
		 M199.052,202.944"/>
	<path fill="#F3F4F4" d="M158.296,216.341l0.334-0.029c1.631-0.137,3.178-0.305,4.691-0.486l2.014-0.244l-1.58-1.27
		c-22.299-17.877-37.676-39.939-41.854-46.277l-0.549-0.818l-0.732,0.666c-0.865,0.781-1.746,1.551-2.662,2.328l-0.566,0.488
		l0.416,0.627c4.012,6.08,18.771,27.311,40.223,44.803L158.296,216.341z M158.296,216.341"/>
	<path fill="#F3F4F4" d="M95.741,186.22l-0.697,0.42c-0.816,0.479-1.648,0.945-2.48,1.432l-1.348,0.744l0.482,0.766
		c1.248,1.947,7.971,12.266,18.787,24.465l0.184,0.215l0.283,0.07c1.797,0.367,3.711,0.715,5.709,1.027l2.395,0.367l-1.646-1.781
		c-11.566-12.631-19.172-23.879-21.217-27.043L95.741,186.22z M95.741,186.22"/>
	<path fill="#F3F4F4" d="M123.284,216.175l0.314,0.033c1.715,0.166,3.479,0.299,5.326,0.4l2.213,0.131l-1.564-1.58
		c-14.295-14.379-23.996-28.484-26.643-32.467l-0.467-0.717l-1.064,0.699c-0.848,0.551-1.697,1.119-2.578,1.67l-0.732,0.461
		l0.482,0.717c2.379,3.66,11.199,16.641,24.496,30.439L123.284,216.175z M123.284,216.175"/>
	<path fill="#F3F4F4" d="M178.05,212.964l0.332-0.184c3.695-3.225,9.037-8.533,13.529-15.594l0.416-0.648l-0.598-0.479
		c-1.033-0.818-2.047-1.635-3.045-2.48l-0.75-0.619l-0.516,0.811c-6.291,9.91-14.029,16.482-18.09,19.514l-2.912,2.176l3.578-0.65
		C172.841,214.278,175.554,213.657,178.05,212.964L178.05,212.964z M178.05,212.964"/>
	<path fill="#F3F4F4" d="M82.296,200.999l0.283,0.332c0.25,0.266,5.924,6.539,20.801,11.053l2.73,0.83l-1.832-2.197
		c-9.119-10.881-14.461-19.305-15.043-20.236l-0.434-0.664l-0.699,0.363c-0.781,0.422-1.596,0.813-2.412,1.215l-1.498,0.766
		L82.296,200.999z M82.296,200.999"/>
	<path fill="#F3F4F4" d="M193.144,165.569c-13.646-13.813-23.531-26.078-25.379-28.391l-0.166-0.205l-0.25-0.078
		c-2.545-0.799-5.125-1.701-7.688-2.662l-3.012-1.17l2.047,2.502c6.424,7.791,19.42,22.867,34.414,36.477l1.98,1.797l-1.781-8.088
		L193.144,165.569z M193.144,165.569"/>
	<path fill="#F3F4F4" d="M195.872,178.136c-22.1-19.074-40.721-42.473-44.232-46.965l-0.799-1.031l-0.615,1.152
		c-0.482,0.91-1.148,2.076-1.98,3.473l-0.299,0.5l0.348,0.461c2.348,3.021,23.516,30.043,47.895,50.145l1.914,1.582l-2.014-9.133
		L195.872,178.136z M195.872,178.136"/>
	<path fill="#F3F4F4" d="M199.034,191.663l-0.25-0.197c-24.129-18.791-45.629-45.15-51.654-52.773l-0.732-0.932l-0.648,1
		c-0.6,0.93-1.248,1.898-1.963,2.91l-0.35,0.516l0.383,0.5c4.625,5.891,28.988,36.229,55.115,55.465l1.83,1.332L199.034,191.663z
		 M199.034,191.663"/>
	<path fill="#F3F4F4" d="M155.718,202.312l-0.883,0.6l0.781,0.732c0.982,0.918,1.982,1.836,2.996,2.746l0.5,0.449l0.549-0.367
		c2.729-1.83,12.197-8.719,19.57-20.234l0.383-0.598l-0.516-0.484c-0.932-0.865-1.865-1.73-2.779-2.613l-0.732-0.695l-0.566,0.846
		C167.55,193.825,158.362,200.53,155.718,202.312L155.718,202.312z M155.718,202.312"/>
	<path fill="#F3F4F4" d="M142.454,145.382l-0.684-0.863l-0.664,0.881c-5.059,6.826-10.852,13.346-17.207,19.424l-0.518,0.479
		l0.385,0.604c0.314,0.5,0.797,1.193,1.381,2.059l0.482,0.717l0.715-0.496c3.279-2.367,11.633-8.939,18.256-19.189l0.35-0.514
		l-0.4-0.486C143.735,146.979,143.036,146.114,142.454,145.382L142.454,145.382z M142.454,145.382"/>
	<path fill="#F3F4F4" d="M167.249,174.522l0.383-0.584l-0.482-0.482c-0.916-0.949-1.814-1.877-2.695-2.791l-0.715-0.77l-0.6,0.865
		c-7.656,11.184-16.758,17.641-19.354,19.355l-0.834,0.547l0.666,0.75c1.049,1.164,2.131,2.35,3.262,3.527l5.709,6.078l-0.4-0.676
		c0.033,0.055,0.066,0.09,0.117,0.121l0.482,0.484l0.566-0.367c0.465-0.283,11.482-7.342,19.82-20.102l0.381-0.578l-0.498-0.508
		c-0.916-0.891-1.83-1.789-2.729-2.707l-0.732-0.719l-0.566,0.852c-7.572,11.131-16.658,17.66-19.354,19.453l-1.447-2.344
		C150.841,192.167,160.011,185.456,167.249,174.522L167.249,174.522z M167.249,174.522"/>
	<path fill="#F3F4F4" d="M86.905,180.085l-1.98,8.965l1.631-0.85c38.092-19.953,56.498-49.592,61.223-58.193l0.434-0.768
		l-1.498-0.748c-0.516-0.266-1.031-0.516-1.531-0.777l-0.666-0.35l-0.432,0.611c-4.693,6.688-29.539,40.594-56.764,51.941
		L86.905,180.085z M86.905,180.085"/>
	<path fill="#F3F4F4" d="M166.317,212.081c3.494-2.48,12.348-9.42,19.121-20.299l0.383-0.619l-0.549-0.482
		c-0.967-0.828-1.914-1.666-2.846-2.498l-0.732-0.664l-0.549,0.832c-7.006,10.666-15.594,17.34-18.973,19.719l-0.898,0.633
		l0.834,0.715c1.047,0.883,2.113,1.766,3.193,2.635l0.5,0.395L166.317,212.081z M166.317,212.081"/>
	<path fill="#F3F4F4" d="M147.513,151.606l-0.732-0.883l-0.633,0.953c-6.805,10.098-15.027,16.486-18.238,18.768l-0.699,0.5
		l0.5,0.697c0.699,0.986,1.48,2.053,2.33,3.213l0.5,0.648l0.664-0.465c2.613-1.781,11.715-8.449,18.904-19.404l0.35-0.553
		l-0.416-0.479C149.144,153.554,148.294,152.538,147.513,151.606L147.513,151.606z M147.513,151.606"/>
	<path fill="#F3F4F4" d="M158.712,164.458l-0.732-0.803l-0.598,0.898c-7.539,11-16.559,17.477-19.154,19.188l-0.783,0.531
		l0.617,0.732c0.914,1.104,1.881,2.23,2.879,3.379l0.682-0.494l0.166,0.262c0.1-0.063,11.15-6.977,19.637-19.766l0.367-0.551
		l-0.449-0.508C160.444,166.366,159.562,165.401,158.712,164.458L158.712,164.458z M158.712,164.458"/>
	<path fill="#F3F4F4" d="M153.054,158.112l-0.715-0.832l-0.633,0.916c-7.105,10.4-15.492,16.762-18.771,19.004l-0.748,0.5
		l0.566,0.715c0.764,0.998,1.598,2.043,2.445,3.107l0.482,0.605l0.648-0.422c1.881-1.227,11.633-7.9,19.389-19.633l0.365-0.531
		l-0.434-0.5C154.753,160.048,153.886,159.062,153.054,158.112L153.054,158.112z M153.054,158.112"/>
	<path fill="#F3F4F4" d="M142.403,238.224c5.625,0,12.416-1.326,12.416-2.961V219.69h-24.83v15.572
		C129.989,236.897,136.778,238.224,142.403,238.224L142.403,238.224z M142.403,238.224"/>
</g>
</svg>
